<svg id="Capa_1" enable-background="new 0 0 512 512" height="512" viewBox="0 0 512 512" width="512" xmlns="http://www.w3.org/2000/svg"><g><g fill="#ffd15b"><path d="m487.918 158.025c3.284-6.834-.5-14.974-7.846-16.878-18.593-4.908-37.39-5.853-55.503-3.306-7.945 1.117-15.531 11.516-23.138 13.936-23.246 7.394-44.793 12.074-62.053 30.111-9.63 10.064-12.121 25.004-6.242 37.651 5.886 12.661 18.939 20.359 32.867 19.528 28.563-1.703 48.06-14.644 70.146-30.74 5.383-3.923 17.582-4.851 22.395-9.532 11.791-11.467 21.761-25.149 29.374-40.77z"/><path d="m323.995 13.354c-3.299-6.836-12.019-8.962-18.079-4.407-15.401 11.465-27.831 25.563-37.112 41.305-4.499 7.63-4.305 19.762-7.303 28.053-8.014 22.162-14.546 42.164-11.299 66.087 1.875 13.815 12.005 25.094 25.552 28.396 13.562 3.306 27.704-2.091 35.724-13.499 15.636-22.242 19.195-47.704 21.04-73.62.567-7.96 5.873-15.795 5.081-23.807-1.62-16.406-6.117-32.774-13.604-48.508z"/><path d="m108.864 51.154c-7.398-1.691-14.487 3.799-14.698 11.382-.621 19.194 2.664 37.71 9.19 54.792 2.114 5.533 11.588 10.631 14.359 15.837 12.475 23.432 24.365 43.579 47.671 57.528 11.968 7.163 27.091 6.288 38.104-2.241 11.026-8.538 15.608-22.966 11.68-36.362-8.418-28.708-25.762-42.931-47.831-61.16-4.177-3.45-7.514-17.146-12.09-20.116-13.834-8.978-29.427-15.686-46.385-19.66z"/><path d="m4.522 242.961c-5.926 4.728-6.046 13.699-.249 18.601 14.638 12.49 31.183 21.487 48.624 27.053 5.132 1.638 11.86-.582 17.122.461 26.536 5.26 52.878 6.541 78.777-3.151 13.049-4.883 21.777-17.253 21.963-31.191.187-13.953-8.241-26.547-21.16-31.843-29.433-12.067-54.77-10.466-84.315-3.079-3.509.878-13.088-1.977-16.538-.827-15.623 5.209-30.567 13.203-44.224 23.976z"/><path d="m89.542 444.339c.008 7.587 6.947 13.284 14.388 11.813 18.866-3.642 36.193-10.95 51.394-21.102 4.644-3.102 5.681-13.482 9.911-17.092 20.408-17.418 39.212-33.468 47.692-59.582 4.304-13.252.064-27.802-10.716-36.653-10.793-8.861-25.885-10.138-38.065-3.346-24.795 13.826-38.608 34.986-51.516 58.846-3.264 6.034-11.96 11.116-14.331 17.614-5.64 15.454-8.68 32.116-8.757 49.502z"/><path d="m299.901 503.648c5.937 4.732 14.709 2.865 18.19-3.871 8.895-17.024 13.969-35.134 15.493-53.359.446-5.338-3.365-10.853-3.521-16.187-.793-27.072-5.31-53.604-20.578-76.743-7.682-11.642-21.696-17.415-35.327-14.515-13.645 2.904-24.036 13.906-26.307 27.671-4.625 28.035 2.139 53.838 12.773 78.842 2.674 6.287 2.409 14.45 5.991 20.333 8.578 14.087 19.721 26.894 33.286 37.829z"/><path d="m477.195 376.226c7.394-1.686 11.395-9.711 8.295-16.639-7.771-17.579-18.764-32.852-32.056-45.423-4.228-3.999-12.972-3.413-17.635-6.852-21.447-15.817-42.9-29.894-70.038-32.367-13.884-1.265-27.12 6.085-33.335 18.553-6.222 12.482-4.088 27.478 5.261 37.851 18.161 20.151 41.622 28.135 66.374 35.757 7.457 2.296 14.642 10.426 22.437 11.47 16.608 2.225 33.416 1.49 50.697-2.35z"/></g><g fill="#fec165"><path d="m148.799 285.927c-31.039 11.61-64.894 12.597-95.902 2.687 18.327-14.649 39.757-25.248 63.143-30.986 2.091-.515 2.101-3.461.01-3.997-25.075-6.336-48.08-18.275-67.303-34.645 32.492-10.838 67.921-9.591 100.856 3.904 12.774 5.233 21.16 17.626 21.16 31.39v.453c-.186 13.938-8.922 26.311-21.964 31.194z"/><path d="m212.928 358.379c-10.24 31.524-30.552 58.612-57.605 76.671-.041-23.498 5.034-46.888 15.12-68.78.907-1.968-1.401-3.812-3.121-2.503-20.459 15.576-44.145 26.228-69.024 31.07 11.744-32.193 34.78-59.132 65.851-76.46 5.192-2.895 10.909-4.327 16.606-4.327 7.654 0 15.267 2.596 21.459 7.675 10.776 8.85 15.02 23.396 10.714 36.654z"/><path d="m215.174 152.086c.927 3.183 1.38 6.428 1.38 9.632 0 10.292-4.656 20.222-13.063 26.733-11.013 8.53-26.136 9.406-38.106 2.246-28.485-17.049-50.41-42.927-62.03-73.368 23.035 5.202 44.62 15.39 63.637 30.039 1.71 1.319 4.028-.515 3.132-2.483-10.662-23.519-15.679-48.893-14.875-74.071 28.752 18.656 49.912 47.131 59.925 81.272z"/><path d="m309.487 353.486c18.275 27.702 26.817 60.503 24.097 92.933-18.399-14.618-33.523-33.182-44.361-54.713-.968-1.926-3.853-1.277-3.894.876-.577 25.837-7.072 50.894-18.713 73.239-17.843-29.278-24.554-64.091-18.765-99.179 1.133-6.882 4.296-13.073 8.89-17.905 4.584-4.842 10.59-8.314 17.42-9.766 13.63-2.895 27.641 2.874 35.326 14.515z"/><path d="m250.2 144.39c-4.461-32.873 2.08-66.107 18.604-94.138 10.24 21.17 15.814 44.453 16.236 68.569.041 2.163 2.915 2.823 3.894.896 11.734-23.025 28.463-42.783 48.665-57.855 3.369 34.099-5.686 68.352-26.124 97.424-6.449 9.179-16.854 14.464-27.733 14.464-2.648 0-5.326-.309-7.984-.958-13.546-3.307-23.683-14.587-25.558-28.402z"/><path d="m381.332 318.264c19.841 16.586 34.947 37.257 45.167 60.312-33.996-4.337-64.977-20.784-88.815-47.229-5.769-6.408-8.787-14.577-8.787-22.829 0-5.11 1.154-10.25 3.533-15.02 6.212-12.465 19.45-19.821 33.337-18.554 33.038 3.008 63.995 16.833 87.669 39.219-11.785 2.689-23.932 4.059-36.294 4.059-11.455 0-22.849-1.185-34.068-3.544-2.113-.442-3.39 2.206-1.742 3.586z"/><path d="m339.383 181.889c22.911-23.941 52.962-39.515 85.186-44.048-10.137 21.15-24.838 39.989-43.402 55.318-1.659 1.37-.391 4.038 1.72 3.606 11.074-2.277 22.355-3.42 33.728-3.42 14.247 0 28.352 1.855 41.93 5.451-24.549 23.89-57.011 38.157-92.542 40.269-.69.041-1.37.062-2.06.062-13.145 0-25.208-7.551-30.802-19.584-5.883-12.652-3.39-27.589 6.242-37.654z"/></g><g fill="#fee45a"><path d="m507.595 265.249c5.867-4.802 5.875-13.774.017-18.603-41.096-34.19-96.556-41.308-144.814-22.56-12.987 5.045-21.56 17.524-21.572 31.463-.013 13.955 8.572 26.443 21.555 31.577 49.008 19.382 103.173 11.821 144.814-21.877z"/><path d="m420.073 64.942c-.103-7.586-7.112-13.196-14.534-11.633-52.308 10.775-92.391 49.69-107.768 99.129-4.138 13.305.282 27.801 11.172 36.518 10.902 8.726 26.009 9.814 38.103 2.871 45.656-26.21 73.457-73.281 73.027-126.885z"/><path d="m208.994 8.259c-5.995-4.658-14.744-2.682-18.14 4.097-24.132 47.626-18.654 103.271 10.429 146.172 7.827 11.546 21.911 17.144 35.504 14.074 13.608-3.074 23.861-14.204 25.96-27.997 7.923-52.066-11.576-103.202-53.753-136.346z"/><path d="m33.305 137.884c-7.373 1.778-11.273 9.852-8.087 16.742 22.217 48.614 69.13 79.086 120.773 83.145 13.898 1.092 27.041-6.423 33.101-18.968 6.066-12.559 3.745-27.527-5.732-37.783-35.776-38.716-87.892-55.41-140.055-43.136z"/><path d="m25.303 356.206c-3.199 6.875.687 14.967 8.056 16.779 51.835 12.994 104.858-4.652 140.172-42.492 9.504-10.184 11.808-25.153 5.772-37.726-6.043-12.587-19.191-20.121-33.108-19.117-52.534 3.788-98.022 34.106-120.892 82.556z"/><path d="m191.014 498.824c3.384 6.795 12.129 8.812 18.133 4.182 42.421-32.41 61.625-84.887 54.019-136.132-2.047-13.791-12.317-24.943-25.904-28.076-13.602-3.137-27.675 2.436-35.552 13.944-29.734 43.44-34.341 97.941-10.696 146.082z"/><path d="m405.654 458.345c7.419 1.598 14.438-3.979 14.555-11.565 1.063-53.409-28.012-101.2-72.811-127.261-12.056-7.013-27.167-5.95-38.073 2.716-10.918 8.675-15.32 23.159-11.225 36.505 15.456 50.379 55.199 88.022 107.554 99.605z"/></g><path d="m147.217 255.695c-.019-27.163 6.056-51.866 22.028-71.402 3.771-4.613 11.236-13.222 11.236-13.222 20.045-17.9 46.485-28.783 75.43-28.763 62.522.044 113.423 50.945 113.467 113.467.018 26.053-8.797 50.076-23.611 69.233 0 0-2.804 3-4.175 4.584-20.79 24.023-51.388 34.732-85.601 34.708-62.521-.044-108.73-46.083-108.774-108.605z" fill="#bc7c63"/><path d="m345.768 325.008c-20.727 26.816-53.227 44.096-89.696 44.075-62.522-.041-113.423-50.942-113.464-113.464-.031-33.646 14.68-63.912 38.024-84.681-14.814 19.161-23.622 43.175-23.602 69.228.041 62.522 50.943 113.423 113.464 113.464 28.866.021 55.247-10.8 75.274-28.622z" fill="#aa6a51"/><ellipse cx="255.992" cy="255.695" fill="#aa6a51" rx="83.556" ry="83.674" transform="matrix(.707 -.707 .707 .707 -105.825 255.905)"/><g><g><g><path d="m279.947 220.825c-4.267 0-7.731-3.459-7.731-7.726s3.455-7.726 7.721-7.726h.01c4.268 0 7.726 3.459 7.726 7.726s-3.459 7.726-7.726 7.726z" fill="#935b44"/></g><g><path d="m279.967 249.234c-4.267 0-7.731-3.459-7.731-7.726s3.455-7.726 7.721-7.726h.01c4.268 0 7.726 3.459 7.726 7.726s-3.459 7.726-7.726 7.726z" fill="#935b44"/></g><g><path d="m279.986 277.643c-4.267 0-7.731-3.459-7.731-7.726s3.455-7.726 7.721-7.726h.01c4.268 0 7.726 3.459 7.726 7.726s-3.458 7.726-7.726 7.726z" fill="#935b44"/></g><g><path d="m280.006 306.051c-4.267 0-7.731-3.459-7.731-7.726s3.455-7.726 7.721-7.726h.01c4.268 0 7.726 3.459 7.726 7.726s-3.458 7.726-7.726 7.726z" fill="#935b44"/></g></g><g><g><path d="m304.176 263.455c-4.267 0-7.731-3.459-7.731-7.726s3.455-7.726 7.721-7.726h.01c4.268 0 7.726 3.459 7.726 7.726s-3.458 7.726-7.726 7.726z" fill="#935b44"/></g><g><path d="m304.156 235.046c-4.267 0-7.731-3.459-7.731-7.726s3.455-7.726 7.721-7.726h.01c4.268 0 7.726 3.459 7.726 7.726s-3.458 7.726-7.726 7.726z" fill="#935b44"/></g><g><path d="m304.196 291.864c-4.267 0-7.731-3.459-7.731-7.726s3.455-7.726 7.721-7.726h.01c4.268 0 7.726 3.459 7.726 7.726.001 4.267-3.458 7.726-7.726 7.726z" fill="#935b44"/></g></g><g><g><path d="m207.376 263.387c-4.267 0-7.731-3.459-7.731-7.726s3.455-7.726 7.721-7.726h.01c4.268 0 7.726 3.459 7.726 7.726.001 4.267-3.458 7.726-7.726 7.726z" fill="#935b44"/></g><g><path d="m207.356 234.978c-4.267 0-7.731-3.459-7.731-7.726s3.455-7.726 7.721-7.726h.01c4.268 0 7.726 3.459 7.726 7.726s-3.458 7.726-7.726 7.726z" fill="#935b44"/></g><g><path d="m207.396 291.796c-4.267 0-7.731-3.459-7.731-7.726s3.455-7.726 7.721-7.726h.01c4.268 0 7.726 3.459 7.726 7.726.001 4.267-3.458 7.726-7.726 7.726z" fill="#935b44"/></g></g><g><g><path d="m231.546 220.791c-4.267 0-7.731-3.459-7.731-7.726s3.455-7.726 7.721-7.726h.01c4.268 0 7.726 3.459 7.726 7.726.001 4.266-3.458 7.726-7.726 7.726z" fill="#935b44"/></g><g><path d="m231.566 249.2c-4.267 0-7.731-3.459-7.731-7.726s3.455-7.726 7.721-7.726h.01c4.268 0 7.726 3.459 7.726 7.726s-3.458 7.726-7.726 7.726z" fill="#935b44"/></g><g><path d="m231.587 277.609c-4.267 0-7.731-3.459-7.731-7.726s3.455-7.726 7.721-7.726h.01c4.268 0 7.726 3.459 7.726 7.726s-3.459 7.726-7.726 7.726z" fill="#935b44"/></g><g><path d="m231.607 306.017c-4.267 0-7.731-3.459-7.731-7.726s3.455-7.726 7.721-7.726h.01c4.268 0 7.726 3.459 7.726 7.726s-3.459 7.726-7.726 7.726z" fill="#935b44"/></g></g><g><g><path d="m255.736 206.604c-4.267 0-7.731-3.459-7.731-7.726s3.455-7.726 7.721-7.726h.01c4.268 0 7.726 3.459 7.726 7.726.001 4.266-3.458 7.726-7.726 7.726z" fill="#935b44"/></g><g><path d="m255.757 235.013c-4.267 0-7.731-3.459-7.731-7.726s3.455-7.726 7.721-7.726h.01c4.268 0 7.726 3.459 7.726 7.726 0 4.266-3.459 7.726-7.726 7.726z" fill="#935b44"/></g><g><path d="m255.777 263.421c-4.267 0-7.731-3.459-7.731-7.726s3.455-7.726 7.721-7.726h.01c4.268 0 7.726 3.459 7.726 7.726s-3.459 7.726-7.726 7.726z" fill="#935b44"/></g><g><path d="m255.797 291.83c-4.267 0-7.731-3.459-7.731-7.726s3.455-7.726 7.721-7.726h.01c4.268 0 7.726 3.459 7.726 7.726s-3.459 7.726-7.726 7.726z" fill="#935b44"/></g><g><path d="m255.816 320.239c-4.267 0-7.731-3.459-7.731-7.726s3.455-7.726 7.721-7.726h.01c4.268 0 7.726 3.459 7.726 7.726s-3.459 7.726-7.726 7.726z" fill="#935b44"/></g></g></g></g></svg>