<svg height="512pt" viewBox="0 0 512.00116 512" width="512pt" xmlns="http://www.w3.org/2000/svg"><path d="m398.472656 55.648438c-2.8125-6.988282-9.445312-11.753907-16.972656-11.988282-25.773438-.800781-51.417969 11.027344-67.246094 33.769532-18.214844 26.183593-18.34375 59.539062-3.078125 85.296874 29.457031 5.359376 60.6875-6.355468 78.90625-32.535156 15.769531-22.667968 17.984375-50.707031 8.390625-74.542968zm0 0" fill="#60d9a7"/><path d="m344.253906 77.429688c11.355469-16.316407 27.761719-27.011719 45.644532-31.460938-2.535157-1.390625-5.390626-2.214844-8.398438-2.308594-25.773438-.800781-51.417969 11.027344-67.246094 33.769532-18.214844 26.183593-18.34375 59.539062-3.078125 85.296874 9.929688 1.808594 20.058594 1.667969 29.824219-.308593-15.085938-25.714844-14.890625-58.90625 3.253906-84.988281zm0 0" fill="#00c680"/><path d="m500.238281 282.191406c4.722657-5.871094 5.636719-13.984375 2.160157-20.667968-11.90625-22.875-34.765626-39.460938-62.34375-42.144532-31.746094-3.085937-60.90625 13.113282-75.90625 39.023438 9.726562 28.316406 35.21875 49.832031 66.964843 52.917968 27.484375 2.675782 53.027344-9.105468 69.125-29.128906zm0 0" fill="#60d9a7"/><path d="m498.277344 254.527344c-16.171875 18.59375-40.769532 29.363281-67.164063 26.796875-24.675781-2.402344-45.566406-15.9375-58.21875-35.140625-3.28125 3.769531-6.21875 7.855468-8.75 12.222656 9.730469 28.316406 35.222657 49.828125 66.96875 52.917969 27.484375 2.671875 53.023438-9.109375 69.125-29.132813 4.71875-5.871094 5.632813-13.984375 2.15625-20.667968-1.25-2.40625-2.632812-4.738282-4.117187-6.996094zm0 0" fill="#00c680"/><path d="m365.609375 475.632812c7.488281.804688 14.816406-2.804687 18.5625-9.339843 12.828125-22.371094 14.449219-50.566407 1.820313-75.226563-14.535157-28.394531-43.914063-44.191406-73.824219-42.835937-18.585938 23.476562-22.933594 56.550781-8.394531 84.9375 12.582031 24.578125 36.289062 39.722656 61.835937 42.464843zm0 0" fill="#60d9a7"/><path d="m333.769531 433.167969c-13.8125-26.976563-10.5625-58.171875 5.738281-81.355469-8.773437-2.761719-18.03125-4.003906-27.339843-3.582031-18.585938 23.476562-22.9375 56.550781-8.398438 84.9375 12.585938 24.578125 36.292969 39.722656 61.839844 42.464843 4.855469.519532 9.640625-.824218 13.425781-3.609374-18.910156-6.292969-35.460937-19.710938-45.265625-38.855469zm0 0" fill="#00c680"/><path d="m113.527344 55.648438c2.8125-6.988282 9.445312-11.753907 16.972656-11.988282 25.773438-.800781 51.421875 11.027344 67.246094 33.769532 18.21875 26.183593 18.34375 59.539062 3.078125 85.296874-29.457031 5.359376-60.6875-6.355468-78.90625-32.535156-15.769531-22.667968-17.984375-50.707031-8.390625-74.542968zm0 0" fill="#60d9a7"/><path d="m151.917969 130.191406c-15.769531-22.667968-17.984375-50.707031-8.390625-74.542968 1.691406-4.199219 4.761718-7.585938 8.574218-9.675782-7.042968-1.753906-14.316406-2.539062-21.601562-2.3125-7.527344.234375-14.160156 5-16.972656 11.988282-9.59375 23.835937-7.378906 51.878906 8.390625 74.542968 18.21875 26.183594 49.449219 37.898438 78.90625 32.535156.058593-.101562.117187-.203124.175781-.308593-19.207031-3.878907-37.003906-14.871094-49.082031-32.226563zm0 0" fill="#00c680"/><path d="m11.761719 282.191406c-4.71875-5.871094-5.636719-13.984375-2.15625-20.667968 11.902343-22.875 34.761719-39.460938 62.339843-42.144532 31.746094-3.085937 60.90625 13.113282 75.910157 39.023438-9.730469 28.316406-35.222657 49.832031-66.96875 52.917968-27.480469 2.675782-53.027344-9.105468-69.125-29.128906zm0 0" fill="#60d9a7"/><path d="m80.886719 281.320312c-26.394531 2.570313-50.992188-8.199218-67.160157-26.792968-1.488281 2.257812-2.867187 4.589844-4.121093 6.996094-3.476563 6.679687-2.5625 14.796874 2.15625 20.664062 16.101562 20.027344 41.644531 31.804688 69.125 29.132812 31.746093-3.085937 57.238281-24.601562 66.96875-52.917968-2.53125-4.367188-5.46875-8.453125-8.75-12.222656-12.652344 19.207031-33.542969 32.742187-58.21875 35.140624zm0 0" fill="#00c680"/><path d="m146.390625 475.632812c-7.488281.804688-14.816406-2.804687-18.5625-9.339843-12.828125-22.371094-14.449219-50.566407-1.820313-75.226563 14.535157-28.394531 43.914063-44.191406 73.824219-42.835937 18.585938 23.476562 22.933594 56.550781 8.394531 84.9375-12.582031 24.578125-36.289062 39.722656-61.835937 42.464843zm0 0" fill="#60d9a7"/><path d="m157.828125 466.292969c-12.828125-22.371094-14.449219-50.566407-1.820313-75.226563 10.011719-19.554687 27.066407-33.136718 46.484376-39.253906-.855469-1.214844-1.734376-2.414062-2.660157-3.582031-29.910156-1.355469-59.285156 14.441406-73.824219 42.835937-12.628906 24.660156-11.003906 52.855469 1.820313 75.226563 3.75 6.535156 11.074219 10.144531 18.5625 9.339843 5.648437-.605468 11.207031-1.824218 16.574219-3.609374-2.054688-1.507813-3.816406-3.433594-5.136719-5.730469zm0 0" fill="#00c680"/><path d="m263.214844 8.847656c-4.632813-1.8125-9.796875-1.8125-14.429688 0-41.09375 16.074219-70.203125 56.0625-70.203125 102.855469 0 49.484375 32.558594 91.359375 77.417969 105.386719 44.859375-14.027344 77.414062-55.902344 77.414062-105.386719.003907-46.792969-29.105468-86.78125-70.199218-102.855469zm0 0" fill="#f3e177"/><path d="m208.585938 111.699219c0-43.773438 25.480468-81.59375 62.414062-99.449219-2.542969-1.226562-5.136719-2.367188-7.785156-3.402344-4.632813-1.8125-9.796875-1.8125-14.429688 0-41.09375 16.074219-70.203125 56.0625-70.203125 102.851563 0 49.484375 32.558594 91.363281 77.417969 105.390625 5.175781-1.621094 10.179688-3.625 15-5.957032-36.929688-17.855468-62.414062-55.660156-62.414062-99.433593zm0 0" fill="#efbb63"/><path d="m256 294.464844c-44.859375 14.027344-77.414062 55.90625-77.414062 105.390625 0 46.789062 29.105468 86.777343 70.203124 102.851562 4.632813 1.8125 9.792969 1.8125 14.425782 0 41.09375-16.074219 70.203125-56.0625 70.203125-102.851562 0-49.484375-32.558594-91.363281-77.417969-105.390625zm0 0" fill="#f3e177"/><path d="m208.585938 399.855469c0-43.773438 25.484374-81.578125 62.414062-99.4375-4.816406-2.328125-9.824219-4.332031-15-5.953125-44.859375 14.027344-77.414062 55.902344-77.414062 105.386718 0 46.789063 29.105468 86.78125 70.203124 102.855469 4.632813 1.8125 9.792969 1.8125 14.425782 0 2.648437-1.035156 5.242187-2.175781 7.785156-3.40625-36.933594-17.851562-62.414062-55.671875-62.414062-99.445312zm0 0" fill="#efbb63"/><path d="m480.867188 153.5c-.410157-4.957031-2.683594-9.589844-6.351563-12.949219-32.53125-29.816406-81.253906-38.335937-123.261719-17.730469-44.425781 21.792969-67.683594 69.464844-60.519531 115.917969 32.351563 34.097657 84.285156 44.882813 128.710937 23.089844 42.007813-20.609375 65.089844-64.351563 61.421876-108.328125zm0 0" fill="#f3e177"/><path d="m419.617188 267.15625c-43.710938-23.199219-95.960938-14.074219-129.386719 18.972656-8.640625 46.199219 13.085937 94.589844 56.792969 117.789063 41.332031 21.9375 90.296874 14.972656 123.765624-13.789063 3.773438-3.238281 6.191407-7.800781 6.761719-12.742187 5.066407-43.832031-16.605469-88.292969-57.933593-110.230469zm0 0" fill="#f3e177"/><path d="m470.785156 360.128906c-33.464844 28.765625-82.433594 35.726563-123.761718 13.789063-32.597657-17.300781-52.957032-48.613281-57.621094-82.582031-6.136719 44.589843 15.554687 90.253906 57.621094 112.582031 41.328124 21.9375 90.296874 14.972656 123.761718-13.789063 3.773438-3.238281 6.195313-7.800781 6.765625-12.742187 1.082031-9.363281.933594-18.757813-.355469-27.953125-.925781 4.140625-3.164062 7.910156-6.410156 10.695312zm0 0" fill="#efbb63"/><path d="m160.746094 122.820312c-42.007813-20.609374-90.730469-12.085937-123.261719 17.726563-3.664063 3.363281-5.941406 7.996094-6.351563 12.953125-3.667968 43.972656 19.414063 87.71875 61.421876 108.328125 44.425781 21.792969 96.359374 11.007813 128.710937-23.089844 7.164063-46.453125-16.09375-94.125-60.519531-115.917969zm0 0" fill="#f3e177"/><path d="m102.554688 231.828125c-37.515626-18.402344-59.917969-55.261719-61.671876-94.257813-1.152343.96875-2.285156 1.960938-3.398437 2.980469-3.664063 3.359375-5.9375 7.992188-6.351563 12.949219-3.667968 43.976562 19.414063 87.71875 61.421876 108.328125 44.425781 21.792969 96.359374 11.007813 128.710937-23.089844 1.117187-7.234375 1.492187-14.496093 1.167969-21.6875-32.460938 27.394531-79.296875 34.683594-119.878906 14.777344zm0 0" fill="#efbb63"/><path d="m221.769531 286.128906c-33.421875-33.046875-85.675781-42.171875-129.382812-18.972656-41.328125 21.9375-63.003907 66.398438-57.933594 110.234375.570313 4.9375 2.988281 9.5 6.761719 12.742187 33.464844 28.761719 82.433594 35.722657 123.761718 13.785157 43.707032-23.199219 65.433594-71.589844 56.792969-117.789063zm0 0" fill="#f3e177"/><path d="m221.769531 286.128906c-8.484375-8.390625-18.191406-15.230468-28.65625-20.398437 4.175781 43.167969-17.449219 86.59375-58.136719 108.1875-32.609374 17.308593-69.96875 16.613281-100.722656 1.425781.066406.683594.121094 1.363281.199219 2.046875.570313 4.9375 2.988281 9.5 6.761719 12.742187 33.464844 28.761719 82.433594 35.722657 123.761718 13.785157 43.707032-23.199219 65.433594-71.589844 56.792969-117.789063zm0 0" fill="#efbb63"/><path d="m410.355469 255.777344c0 85.246094-69.105469 154.355468-154.355469 154.355468-85.246094 0-154.355469-69.109374-154.355469-154.355468s69.109375-154.355469 154.355469-154.355469c85.25 0 154.355469 69.109375 154.355469 154.355469zm0 0" fill="#e3996d"/><path d="m131.644531 255.777344c0-80.1875 61.148438-146.085938 139.355469-153.628906-4.9375-.476563-9.941406-.726563-15-.726563-85.25 0-154.355469 69.105469-154.355469 154.355469 0 85.246094 69.105469 154.351562 154.355469 154.351562 5.058594 0 10.0625-.25 15-.726562-78.207031-7.539063-139.355469-73.4375-139.355469-153.625zm0 0" fill="#c66d33"/><path d="m183.40625 238.199219c-4.140625 0-7.5 3.359375-7.5 7.5v13.140625c0 4.140625 3.359375 7.5 7.5 7.5s7.5-3.359375 7.5-7.5v-13.140625c0-4.140625-3.359375-7.5-7.5-7.5zm0 0"/><path d="m328.597656 238.199219c-4.144531 0-7.5 3.359375-7.5 7.5v13.140625c0 4.140625 3.355469 7.5 7.5 7.5 4.140625 0 7.5-3.359375 7.5-7.5v-13.140625c0-4.140625-3.359375-7.5-7.5-7.5zm0 0"/><path d="m278.855469 252.277344c-3.117188-2.726563-7.855469-2.410156-10.582031.710937-2.980469 3.410157-7.453126 5.363281-12.273438 5.363281s-9.289062-1.957031-12.269531-5.363281c-2.726563-3.117187-7.464844-3.4375-10.582031-.710937-3.121094 2.726562-3.4375 7.464844-.710938 10.582031 5.828125 6.667969 14.417969 10.492187 23.5625 10.492187 9.148438 0 17.738281-3.824218 23.566406-10.492187 2.726563-3.117187 2.40625-7.855469-.710937-10.582031zm0 0"/><path d="m509.050781 258.058594c-8.117187-15.59375-20.761719-28.28125-36.105469-36.449219.296876-.515625.605469-1.019531.894532-1.542969 11.4375-20.578125 16.453125-43.8125 14.503906-67.191406-.574219-6.863281-3.683594-13.203125-8.761719-17.855469-19.417969-17.796875-43.996093-28.46875-70.0625-30.605469 3.914063-17.097656 2.546875-35.078124-4.089843-51.570312-4.398438-10.921875-14.960938-16.726562-26.382813-16.726562-19.484375 0-37.976563 6.402343-53.050781 18.164062-1.875-3.347656-3.902344-6.628906-6.113282-9.808594-13.441406-19.332031-32.089843-34.066406-53.9375-42.613281-6.339843-2.480469-13.550781-2.476563-19.890624 0-21.847657 8.546875-40.496094 23.28125-53.9375 42.613281-2.210938 3.179688-4.238282 6.460938-6.113282 9.808594-15.074218-11.761719-33.566406-18.164062-53.050781-18.164062-11.699219 0-21.691406 5.773437-26.382813 16.726562-6.640624 16.5-8.007812 34.484375-4.089843 51.589844-6.832031.558594-13.640625 1.71875-20.351563 3.484375-4.003906 1.054687-6.394531 5.15625-5.339844 9.164062 1.054688 4.003907 5.15625 6.394531 9.164063 5.339844 23.171875-6.105469 47.746094-3.902344 69.457031 6.167969.101563.042968.195313.09375.292969.136718-17.199219 13.585938-31.242187 30.332032-41.5625 49.105469l-30.480469-14.953125c-3.71875-1.824218-8.210937-.289062-10.035156 3.429688-1.828125 3.71875-.289062 8.210937 3.429688 10.035156l30.480468 14.953125c-1.648437 3.796875-3.152344 7.660156-4.507812 11.582031-5.691406 16.472656-8.714844 33.914063-8.875 51.34375-.203125-.105468-.40625-.207031-.605469-.308594-17.683594-9.230468-32.585937-23.691406-42.277344-41.132812-9.988281-17.972656-14.367187-38.253906-12.667969-58.660156.261719-3.089844 1.660157-5.949219 3.949219-8.046875 5.398438-4.949219 11.390625-9.347657 17.808594-13.074219 3.585937-2.078125 4.800781-6.667969 2.722656-10.25-2.082031-3.582031-6.671875-4.800781-10.25-2.71875-7.351562 4.265625-14.21875 9.308594-20.417969 14.988281-5.074218 4.652344-8.1875 10.992188-8.757812 17.855469-1.949219 23.378906 3.0625 46.613281 14.5 67.191406.289062.523438.597656 1.027344.894531 1.542969-15.339843 8.167969-27.980469 20.855469-36.097656 36.449219-4.828125 9.269531-3.664063 20.585937 2.964844 28.828125 8.8125 10.964843 20.027343 19.515625 32.773437 25.085937-10.277344 20.589844-14.328125 43.46875-11.691406 66.273438.792969 6.84375 4.101562 13.082031 9.328125 17.570312 20.523437 17.640625 46.53125 27.671875 73.570313 28.449219-.472657 15.902344 3.464843 31.875 11.425781 45.753906 5.152343 8.988281 15.601562 14.167969 25.867187 13.066407 15.957032-1.710938 31.207032-7.917969 43.8125-17.675782.375.554688.730469 1.117188 1.113282 1.667969 13.441406 19.328125 32.09375 34.0625 53.9375 42.609375 6.351562 2.484375 13.539062 2.484375 19.890624 0 21.847657-8.546875 40.5-23.28125 53.9375-42.613281.382813-.550781.742188-1.113281 1.117188-1.667969 12.605469 9.757812 27.855469 15.964844 43.808594 17.679688 10.316406 1.105468 20.691406-4.039063 25.871094-13.066407 7.960937-13.882812 11.898437-29.863281 11.421874-45.769531 7.648438-.214844 15.304688-1.179688 22.855469-2.902344 4.039063-.917968 6.566407-4.941406 5.644531-8.976562-.921874-4.039063-4.941406-6.566406-8.980468-5.644532-22.457032 5.121094-45.964844 2.53125-66.726563-7.261718-4.015625-1.894532-12.105469-6.761719-12.339843-6.910156 18.492187-11.730469 34.507812-27.167969 46.933593-45.253907l35.859375 19.03125c3.613282 1.917969 8.226563.5 10.140625-3.105469 1.941407-3.660156.550781-8.199218-3.109375-10.144531l-34.960937-18.554687c3.984375-7.152344 7.402343-14.585938 10.25-22.234375 4.546875-12.222657 7.632812-24.996094 9.117187-37.949219.007813-.058594.015625-.117188.023438-.175781 14.890625 8.0625 27.738281 19.828125 37.039062 33.980469 13.191406 20.070312 19.011719 44.515624 16.253906 68.375-.355468 3.082031-1.847656 5.894531-4.203124 7.914062-5.625 4.835938-11.828126 9.082031-18.441407 12.625-3.648437 1.957031-5.023437 6.5-3.070312 10.152344 1.957031 3.652344 6.503906 5.023437 10.152343 3.070312 7.574219-4.054687 14.683594-8.925781 21.136719-14.46875 5.222657-4.492187 8.535157-10.730468 9.324219-17.570312 2.636719-22.808594-1.414062-45.6875-11.6875-66.277344 12.746094-5.570312 23.960938-14.121094 32.773438-25.082031 6.625-8.242188 7.789062-19.558594 2.964843-28.828125zm-107.207031 14.066406c-6.1875 56.351562-46.210938 105.664062-100.492188 123.328125-29.230468 9.515625-61.484374 9.46875-90.71875-.003906-42.429687-13.816407-76.433593-46.460938-92.101562-88.023438-12.589844-33.398437-12.417969-71.886719.785156-105.363281.046875-.117188.09375-.230469.140625-.347656 16.058594-40.417969 49.566407-72.066406 91.175781-85.613282 29.292969-9.539062 61.421876-9.539062 90.71875-.003906 41.617188 13.542969 75.136719 45.199219 91.195313 85.628906.046875.109376.089844.21875.136719.332032 8.714844 22.078125 11.753906 46.410156 9.160156 70.066406zm71.550781-118.003906c3.253907 39.011718-16.753906 77.511718-50.476562 97.3125-1.660157.976562-3.351563 1.90625-5.070313 2.789062 0-.371094-.019531-.742187-.023437-1.109375-.335938-21.074219-4.902344-42.34375-13.359375-61.8125l30.480468-14.953125c3.71875-1.824218 5.253907-6.320312 3.429688-10.039062-1.820312-3.71875-6.316406-5.253906-10.035156-3.429688l-30.484375 14.953125c-10.316407-18.769531-24.359375-35.519531-41.558594-49.101562.15625-.074219.3125-.152344.472656-.226563 37.3125-17.222656 82.398438-10.179687 112.679688 17.570313 2.285156 2.097656 3.6875 4.957031 3.945312 8.046875zm-94.347656-103c5.417969 0 10.3125 1.964844 12.46875 7.324218 5.886719 14.628907 6.78125 30.675782 2.628906 45.707032-.050781 0-.101562.003906-.152343.007812-14.042969.675782-27.992188 3.902344-40.871094 9.542969-3.628906 1.589844-7.1875 3.324219-10.644532 5.253906-.574218-.359375-1.152343-.722656-1.730468-1.078125.007812-.117187.007812-.230468.015625-.347656.746093-14.6875-1.28125-29.515625-5.980469-43.449219-.160156-.472656-2.367188-5.695312-2.144531-5.886719 12.886719-11.046874 29.179687-17.074218 46.410156-17.074218zm-127.527344-35.289063c2.867188-1.121093 6.097657-1.121093 8.964844 0 19.066406 7.457031 35.347656 20.320313 47.082031 37.203125 11.496094 16.535156 17.875 36.296875 18.320313 56.425782.003906.097656.003906.195312.003906.296874-4.636719-2.222656-9.382813-4.203124-14.207031-5.964843-15.425782-5.679688-31.765625-8.941407-48.183594-9.691407v-33.964843c0-4.140625-3.355469-7.5-7.5-7.5-4.140625 0-7.5 3.359375-7.5 7.5v33.964843c-4.96875.226563-9.921875.695313-14.851562 1.371094-16.445313 2.257813-32.566407 7.117188-47.539063 14.28125.003906-.097656.003906-.195312.003906-.292968.429688-20.085938 6.851563-39.929688 18.320313-56.425782 11.738281-16.878906 28.019531-29.746094 47.085937-37.203125zm-131.035156 42.617188c2.148437-5.335938 7.082031-7.328125 12.46875-7.328125 17.230469 0 33.527344 6.027344 46.414063 17.074218-6.199219 15.601563-8.980469 32.5625-8.128907 49.328126.007813.121093.007813.234374.015625.355468-.578125.359375-1.15625.71875-1.730468 1.082032-.109376-.0625-.21875-.117188-.328126-.179688-15.660156-8.648438-33.375-13.78125-51.335937-14.628906-4.15625-15.03125-3.261719-31.078125 2.625-45.703125zm-102.878906 219.039062c-2.894531-3.605469-3.425781-8.511719-1.347657-12.503906 6.9375-13.332031 17.863282-24.105469 31.121094-30.820313 8.605469 11.320313 19.175782 20.949219 31.304688 28.507813 1.039062.648437 2.085937 1.292969 3.148437 1.910156-3.5625 2.21875-7.003906 4.628907-10.3125 7.207031-9.804687 7.644532-18.316406 16.761719-25.25 27.109376-11.1875-4.574219-21.015625-11.898438-28.664062-21.410157zm24.292969 99.039063c-2.347657-20.339844 1.382812-40.753906 10.789062-59.035156 9.113281-17.707032 24.359375-34.476563 42.464844-43.273438 1.992187 8.921875 2.863281 17.917969 5.425781 26.765625 3.378906 11.652344 8.101563 22.945313 14.007813 33.542969l-34.964844 18.558594c-3.65625 1.941406-5.050782 6.480468-3.109375 10.140624 1.921875 3.617188 6.53125 5.023438 10.140625 3.109376l35.859375-19.035157c12.425781 18.089844 28.441406 33.523438 46.933593 45.253907-3.546874 2.3125-7.222656 4.425781-11.027343 6.285156-36.589844 17.886718-81.429688 12.148437-112.316407-14.398438-2.351562-2.023437-3.84375-4.832031-4.203124-7.914062zm103.691406 91.644531c-4.5625.488281-9.039063-1.75-11.253906-5.613281-6.75-11.769532-10.019532-25.351563-9.425782-38.824219.832032-.082031 2.640625-.289063 2.710938-.296875 15.367187-1.949219 30.339844-6.839844 43.808594-14.511719.140624 1.867188.59375 5.75.605468 5.832031 1.652344 13.113282 5.476563 25.777344 11.351563 37.566407-10.710938 8.785156-23.933594 14.359375-37.796875 15.847656zm114.890625 27.546875c-2.859375 1.121094-6.097657 1.121094-8.960938 0-19.066406-7.457031-35.347656-20.324219-47.085937-37.203125-11.5-16.542969-17.949219-36.574219-18.316406-56.71875 4.632812 2.21875 14.363281 6.023437 14.449218 6.054687 15.347656 5.648438 31.601563 8.851563 47.933594 9.597657v33.964843c0 4.140626 3.359375 7.5 7.5 7.5s7.5-3.359374 7.5-7.5v-33.964843c12.523438-.570313 24.984375-2.597657 37.035156-6.050781 3.757813-1.074219 20.710938-7.382813 25.351563-9.601563-.015625.878906-.191407 4.683594-.265625 5.707031-1.34375 18.21875-7.621094 36.011719-18.054688 51.011719-11.734375 16.878906-28.015625 29.746094-47.085937 37.203125zm117.1875-33.160156c-2.246094 3.910156-6.808594 6.089844-11.257813 5.613281-13.863281-1.488281-27.085937-7.0625-37.792968-15.84375 5.871093-11.789063 9.695312-24.445313 11.347656-37.554687.246094-1.941407.457031-3.894532.605468-5.84375 1.957032 1.109374 8.371094 4.324218 9.589844 4.878906 11.75 5.339844 24.117188 8.671875 36.929688 9.929687.59375 13.46875-2.675782 27.054688-9.421875 38.820313zm116.726562-185.070313c-7.648437 9.511719-17.476562 16.835938-28.660156 21.410157-6.933594-10.34375-15.445313-19.460938-25.246094-27.101563-3.300781-2.589844-6.757812-4.996094-10.316406-7.214844.039063-.023437 2.15625-1.285156 3.15625-1.914062 12.125-7.558594 22.691406-17.183594 31.292969-28.503907 13.257812 6.714844 24.183594 17.488282 31.121094 30.820313 2.078124 3.992187 1.550781 8.898437-1.347657 12.503906zm0 0"/></svg>