<svg id="Capa_1" enable-background="new 0 0 512 512" height="512" viewBox="0 0 512 512" width="512" xmlns="http://www.w3.org/2000/svg"><g><path d="m374.12 391.747c9.601 4.842 17.781 10.343 23.571 14.639 5.676 4.224 7.345 11.971 3.915 18.152-9.406 16.905-30.844 48.676-62.182 55.434-34.295 7.397-70.135-17.379-83.424-27.887-13.289 10.508-49.129 35.284-83.424 27.887-31.338-6.758-52.776-38.529-62.182-55.434-3.43-6.181-1.762-13.928 3.915-18.152 4.76-3.533 11.126-7.871 18.574-12.001z" fill="#00c755"/><path d="m374.12 391.747c-4.512 17.359-13.804 32.358-30.885 39.044-14.402 5.645-30.195 3.513-46.276-5.924-2.472 3.163-5.161 6.119-8.066 8.787-12.3 11.26-24.673 13.619-32.894 13.619-19.738 0-34.12-12.218-44.298-27.042-15.267 9.509-33.337 14.958-51.427 7.047-9.931-4.337-21.294-13.526-27.393-32.894 16.844-9.333 39.188-17.565 60.925-12.877 34.75-21.51 62.194-33.646 62.194-33.646s37.777 11.311 62.192 33.646c19.646-4.234 39.796 2.081 55.928 10.24z" fill="#00b730"/><path d="m287.647 434.767v57.123c0 11.105-9.004 20.109-20.109 20.109h-23.076c-11.105 0-20.109-9.004-20.109-20.109v-57.144z" fill="#55d47b"/><path d="m287.647 347.861v86.906c-11.888 10.302-23.704 12.506-31.647 12.506-12.651 0-23.097-5.017-31.647-12.527v-86.886h63.294z" fill="#00c755"/><g><path d="m136.192 141.381c13.02-21.682 31.758-39.535 54.13-51.48-1.244-1.773-2.648-3.469-4.232-5.053-14.754-14.754-62.546-38.626-77.3-23.872s9.118 62.546 23.872 77.3c1.124 1.124 2.307 2.152 3.53 3.105z" fill="#fab658"/><path d="m293.777 71.536c0 2.39-.227 4.718-.649 6.974-6.985-1.916-14.196-3.317-21.572-4.131-31.51-16.324-32.348-59.608-11.59-73.771 18.997 5.779 33.811 51.406 33.811 70.928z" fill="#fdc072"/><path d="m271.556 74.379c-5.11-.577-10.302-.865-15.556-.865-12.857 0-25.301 1.752-37.128 4.996-.422-2.256-.649-4.584-.649-6.974 0-20.861 16.916-71.536 37.777-71.536 1.339 0 2.658.206 3.966.608-12.898 21.252-10.899 53.487 11.59 73.771z" fill="#fab658"/><path d="m375.808 141.381c1.223-.953 2.406-1.981 3.53-3.105 14.754-14.754 38.625-62.546 23.872-77.3-14.754-14.754-62.546 9.118-77.3 23.872-1.584 1.585-2.988 3.28-4.232 5.053 22.372 11.945 41.11 29.798 54.13 51.48z" fill="#fdc072"/><path d="m120.221 245.944c-2.528-10.512-3.877-21.484-3.877-32.772 0-14.853 2.327-29.16 6.622-42.588-1.19-.113-2.394-.176-3.614-.176-20.865 0-71.539 16.914-71.539 37.779s50.674 37.779 71.539 37.779c.292 0 .579-.016.869-.022z" fill="#fab658"/><path d="m132.45 278.319c-14.768 14.992-38.344 62.393-23.66 77.077 14.239 14.239 59.241-7.497 75.628-22.294-21.947-13.127-39.986-32.106-51.968-54.783z" fill="#fab658"/><path d="m392.648 170.407c-1.219 0-2.424.063-3.614.176 4.295 13.428 6.622 27.735 6.622 42.588 0 11.288-1.349 22.26-3.877 32.772.289.007.577.022.868.022 20.865 0 71.539-16.914 71.539-37.779.001-20.864-50.674-37.779-71.538-37.779z" fill="#fdc072"/><path d="m293.684 347.676c-1.071 17.585-11.487 50.211-25.652 63.171-28.994-13.722-28.994-44.571-13.526-58.03.494.01.999.01 1.494.01 13.063 0 25.693-1.793 37.684-5.151z" fill="#fdc072"/><path d="m268.032 410.847c-3.781 3.461-7.829 5.522-12.032 5.522-19.975 0-36.324-46.42-37.684-68.692 11.528 3.235 23.653 5.007 36.19 5.141-5.666 18.737-1.998 41.525 13.526 58.029z" fill="#fab658"/><path d="m327.582 333.103c16.387 14.797 61.389 36.533 75.628 22.294 14.684-14.684-8.892-62.085-23.66-77.077-11.982 22.676-30.021 41.655-51.968 54.783z" fill="#fdc072"/></g><g><path d="m115.657 188.098c.91.398 1.828.744 2.75 1.065 4.448-25.672 15.903-48.939 32.326-67.763-1.526-.946-3.133-1.801-4.827-2.54-19.12-8.353-72.327-13.141-80.68 5.978-8.353 19.12 31.311 54.907 50.431 63.26z" fill="#fad989"/><path d="m173.712 100.334c19.864-14.511 43.702-23.902 69.578-26.237-.432-2.323-1.08-4.64-1.974-6.922-7.613-19.426-41.851-60.435-61.277-52.822s-16.685 60.965-9.072 80.391c.771 1.969 1.696 3.831 2.745 5.59z" fill="#fad989"/><path d="m342.435 103.474c1.088-1.688 2.061-3.481 2.891-5.381 8.353-19.12 13.141-72.327-5.978-80.681-19.12-8.353-54.907 31.311-63.26 50.431-.976 2.234-1.71 4.512-2.23 6.804 25.696 3.28 49.208 13.544 68.577 28.827z" fill="#fbf198"/><path d="m394.397 194.407c.875-.272 1.747-.565 2.614-.905 19.426-7.613 60.435-41.851 52.822-61.277s-60.965-16.685-80.392-9.072c-1.674.656-3.269 1.425-4.792 2.283 15.676 19.387 26.267 43.051 29.748 68.971z" fill="#fbf198"/><path d="m116.647 222.269c-.554.188-1.107.386-1.658.602-19.426 7.613-60.435 41.851-52.822 61.277 7.512 19.169 59.556 16.753 79.599 9.371-14.377-20.401-23.42-44.825-25.119-71.25z" fill="#fad989"/><path d="m165.991 319.944c-7.916 20.363-11.931 70.894 6.661 79.017 18.268 7.981 51.75-27.871 61.982-47.758-25.919-3.98-49.484-15.091-68.643-31.259z" fill="#fad989"/><g fill="#fbf198"><path d="m396.343 228.275c-.476-.208-.956-.397-1.435-.585-2.711 26.244-12.695 50.327-27.895 70.211 19.85 8.109 71.538 12.455 79.761-6.367 8.353-19.119-31.311-54.906-50.431-63.259z"/><path d="m271.863 351.926c9.466 20.267 41.54 57.367 60.099 50.094 18.851-7.387 16.827-57.843 9.735-78.576-19.73 15.355-43.688 25.525-69.834 28.482z"/></g></g><path d="m401.997 213.175c0 67.013-45.142 123.478-106.686 140.64-120.051-57.563-127.311-225.39-49.448-286.287 3.348-.237 6.727-.35 10.137-.35 80.632 0 145.997 65.365 145.997 145.997z" fill="#e4996d"/><path d="m295.312 353.816c-12.506 3.492-25.693 5.357-39.312 5.357-80.632 0-145.997-65.365-145.997-145.997 0-77.222 59.956-140.444 135.86-145.647-52.364 81.734-43.917 210.095 49.449 286.287z" fill="#df8a57"/><ellipse cx="174.042" cy="230.836" fill="#fff" rx="30.241" ry="24.082"/><ellipse cx="337.958" cy="230.836" fill="#fff" rx="30.241" ry="24.082"/><g><path d="m191.666 215.154c-4.143 0-7.5-3.357-7.5-7.5v-12.362c0-4.143 3.357-7.5 7.5-7.5s7.5 3.357 7.5 7.5v12.362c0 4.143-3.357 7.5-7.5 7.5z" fill="#495560"/></g><g><path d="m320.333 215.154c-4.143 0-7.5-3.357-7.5-7.5v-12.362c0-4.143 3.357-7.5 7.5-7.5s7.5 3.357 7.5 7.5v12.362c0 4.143-3.357 7.5-7.5 7.5z" fill="#495560"/></g><g><path d="m256 222.513c-8.669 0-16.911-3.754-22.615-10.299-2.722-3.123-2.396-7.86.727-10.582 3.122-2.721 7.859-2.396 10.582.727 2.854 3.275 6.976 5.154 11.307 5.154s8.452-1.879 11.307-5.154c2.723-3.123 7.457-3.448 10.582-.727 3.122 2.722 3.448 7.459.727 10.582-5.706 6.545-13.948 10.299-22.617 10.299z" fill="#495560"/></g></g></svg>