<?xml version="1.0" encoding="UTF-8"?>
<svg xmlns="http://www.w3.org/2000/svg" xmlns:xlink="http://www.w3.org/1999/xlink" version="1.1" id="Capa_1" x="0px" y="0px" viewBox="0 0 511.935 511.935" style="enable-background:new 0 0 511.935 511.935;" xml:space="preserve" width="512" height="512">
<g>
	<g>
		<path style="fill:#FF9A5C;" d="M498.998,244.408c-14.47-11.98-39.93-29.69-69.13-35.04c22.62-19.23,35.81-47.29,42.35-64.9&#10;&#9;&#9;&#9;c3.28-8.83-2.27-18.45-11.56-20.03c-18.52-3.14-49.42-5.74-77.38,4.22c9.96-27.96,7.36-58.86,4.22-77.38&#10;&#9;&#9;&#9;c-1.58-9.29-11.2-14.84-20.03-11.56c-17.61,6.54-45.67,19.73-64.9,42.34c-4.69-25.61-18.9-48.34-30.4-63.31&#10;&#9;&#9;&#9;c-0.44-0.57-0.87-1.13-1.3-1.67c-1.15-1.47-2.27-2.85-3.34-4.14c-6.01-7.25-17.11-7.25-23.12,0&#10;&#9;&#9;&#9;c-11.98,14.47-29.69,39.93-35.04,69.12c-19.23-22.61-47.29-35.8-64.9-42.34c-8.83-3.28-18.45,2.27-20.03,11.56&#10;&#9;&#9;&#9;c-3.14,18.52-5.75,49.42,4.22,77.38c-27.96-9.96-58.86-7.36-77.38-4.22c-9.29,1.58-14.84,11.2-11.56,20.03&#10;&#9;&#9;&#9;c6.54,17.61,19.73,45.67,42.33,64.9c-29.19,5.35-54.64,23.06-69.11,35.04c-7.25,6.01-7.25,17.11,0,23.12&#10;&#9;&#9;&#9;c14.47,11.98,39.93,29.69,69.12,35.04c-22.61,19.23-35.8,47.29-42.34,64.9c-3.28,8.83,2.27,18.45,11.56,20.03&#10;&#9;&#9;&#9;c18.52,3.14,49.42,5.75,77.38-4.22c-9.97,27.96-7.36,58.86-4.22,77.38c1.58,9.29,11.2,14.84,20.03,11.56&#10;&#9;&#9;&#9;c17.61-6.54,45.67-19.73,64.9-42.34c5.35,29.19,23.06,54.65,35.04,69.12c6.01,7.25,17.11,7.25,23.12,0&#10;&#9;&#9;&#9;c2.3-2.77,4.81-5.95,7.39-9.49c0.7-0.96,1.41-1.94,2.14-2.95c10.35-14.66,21.47-34.61,25.51-56.68&#10;&#9;&#9;&#9;c19.23,22.61,47.29,35.8,64.9,42.34c8.83,3.28,18.45-2.27,20.03-11.56c3.14-18.52,5.74-49.42-4.22-77.38&#10;&#9;&#9;&#9;c27.96,9.97,58.86,7.36,77.38,4.22c9.29-1.58,14.84-11.2,11.56-20.03c-6.54-17.61-19.73-45.67-42.35-64.9&#10;&#9;&#9;&#9;c29.2-5.35,54.66-23.06,69.13-35.04C506.248,261.517,506.248,250.418,498.998,244.408z M372.377,287.158l-31.19,54.03&#10;&#9;&#9;&#9;l-54.03,31.19h-62.38l-27.82-16.05l-2.61-1.51l-23.6-13.63l-31.19-54.03v-62.38l31.19-54.03l13.32-7.69l6.73-3.88l33.98-19.62&#10;&#9;&#9;&#9;h62.38l54.03,31.19l31.19,54.03V287.158z"/>
		<path style="fill:#FF7E27;" d="M277.058,486.557c-0.73,1.01-1.44,1.99-2.14,2.95c-2.58,3.54-5.09,6.72-7.39,9.49&#10;&#9;&#9;&#9;c-6.01,7.25-17.11,7.25-23.12,0c-11.98-14.47-29.69-39.93-35.04-69.12c-19.23,22.61-47.29,35.8-64.9,42.34&#10;&#9;&#9;&#9;c-8.83,3.28-18.45-2.27-20.03-11.56c-3.14-18.52-5.75-49.42,4.22-77.38c-27.96,9.97-58.86,7.36-77.38,4.22&#10;&#9;&#9;&#9;c-9.29-1.58-14.84-11.2-11.56-20.03c6.54-17.61,19.73-45.67,42.34-64.9c-29.19-5.35-54.65-23.06-69.12-35.04&#10;&#9;&#9;&#9;c-7.25-6.01-7.25-17.11,0-23.12c14.47-11.98,39.92-29.69,69.11-35.04c-22.6-19.23-35.79-47.29-42.33-64.9&#10;&#9;&#9;&#9;c-3.28-8.83,2.27-18.45,11.56-20.03c18.52-3.14,49.42-5.74,77.38,4.22c-9.97-27.96-7.36-58.86-4.22-77.38&#10;&#9;&#9;&#9;c1.58-9.29,11.2-14.84,20.03-11.56c17.61,6.54,45.67,19.73,64.9,42.34c5.35-29.19,23.06-54.65,35.04-69.12&#10;&#9;&#9;&#9;c6.01-7.25,17.11-7.25,23.12,0c1.07,1.29,2.19,2.67,3.34,4.14c-18.09,20.22-58.83,71.3-80.07,142.1l-6.73,3.88l-13.32,7.69&#10;&#9;&#9;&#9;l-31.19,54.03v62.38l31.19,54.03l23.6,13.63l2.61,1.51C212.358,397.937,237.867,441.668,277.058,486.557z"/>
		<path style="fill:#F3C23B;" d="M175.082,195.318l-19.489,72.734c-56.029,14.026-97.859-33.054-115.553-57.973&#10;&#9;&#9;&#9;c-5.447-7.682-2.575-18.404,5.984-22.332c17.078-7.827,46.244-18.346,75.824-15.959&#10;&#9;&#9;&#9;C140.395,173.279,159.093,179.842,175.082,195.318z"/>
		<path style="fill:#F9D171;" d="M155.593,243.885l19.489,72.734c-41.51,40.162-101.276,20.304-129.058,7.571&#10;&#9;&#9;&#9;c-8.558-3.929-11.431-14.651-5.984-22.332c10.876-15.317,30.875-39.01,57.686-51.733&#10;&#9;&#9;&#9;C114.533,242.143,134.008,238.477,155.593,243.885z"/>
		<path style="fill:#F3C23B;" d="M162.999,295.69l53.245,53.245c-15.867,55.536-77.555,68.222-107.982,71.086&#10;&#9;&#9;&#9;c-9.376,0.877-17.225-6.972-16.348-16.348c1.761-18.703,7.234-49.222,24.091-73.645&#10;&#9;&#9;&#9;C126.569,314.711,141.602,301.799,162.999,295.69z"/>
		<path style="fill:#FCE3A0;" d="M242.664,442.734c-0.461,0.539-0.942,1.068-1.413,1.598c-10.73,11.942-22.417,21.262-31.287,27.547&#10;&#9;&#9;&#9;c-7.689,5.427-18.404,2.539-22.32-6.028c-1.694-3.703-3.506-7.976-5.288-12.689l3.389-28.854l-14.242-22.114l0-0.01l6.436-15.329&#10;&#9;&#9;&#9;l-0.774-21.341c2.934-7.865,7.167-15.528,12.989-22.738c0.521-0.659,1.062-1.308,1.623-1.957c1.152-1.358,2.375-2.696,3.657-4.014&#10;&#9;&#9;&#9;l72.697,19.614C276.892,391.653,261.511,421.237,242.664,442.734z"/>
		<path style="fill:#F9D171;" d="M242.728,442.697c-0.46,0.54-0.94,1.07-1.41,1.6c-10.71,11.96-22.38,21.3-31.24,27.6&#10;&#9;&#9;&#9;c-7.68,5.44-18.4,2.57-22.33-5.99c-7.83-17.08-18.35-46.24-15.96-75.82c1.31-16.28,6.52-32.68,18.26-47.26&#10;&#9;&#9;&#9;c0.52-0.66,1.06-1.31,1.62-1.96C201.957,373.557,218.377,407.658,242.728,442.697z"/>
		<path style="fill:#F9D171;" d="M243.882,356.341l72.734-19.489c40.162,41.51,20.304,101.276,7.571,129.058&#10;&#9;&#9;&#9;c-3.929,8.558-14.651,11.431-22.332,5.984c-15.317-10.876-39.01-30.875-51.733-57.686&#10;&#9;&#9;&#9;C242.14,397.401,238.475,377.926,243.882,356.341z"/>
		<path style="fill:#FCE3A0;" d="M295.687,348.935l53.245-53.245c55.536,15.867,68.222,77.555,71.086,107.982&#10;&#9;&#9;&#9;c0.877,9.376-6.972,17.225-16.348,16.348c-18.703-1.761-49.222-7.234-73.645-24.091&#10;&#9;&#9;&#9;C314.709,385.365,301.797,370.332,295.687,348.935z"/>
		<path style="fill:#F9D171;" d="M336.849,316.619l19.489-72.734c56.029-14.026,97.859,33.054,115.553,57.973&#10;&#9;&#9;&#9;c5.447,7.682,2.575,18.404-5.984,22.332c-17.078,7.827-46.244,18.346-75.824,15.959&#10;&#9;&#9;&#9;C371.537,338.658,352.839,332.095,336.849,316.619z"/>
		<path style="fill:#FCE3A0;" d="M356.338,268.052l-19.489-72.734c41.51-40.162,101.276-20.304,129.058-7.571&#10;&#9;&#9;&#9;c8.558,3.929,11.431,14.651,5.984,22.332c-10.876,15.317-30.875,39.01-57.686,51.733&#10;&#9;&#9;&#9;C397.398,269.794,377.923,273.459,356.338,268.052z"/>
		<path style="fill:#F9D171;" d="M348.932,216.247l-53.245-53.245c15.867-55.536,77.555-68.222,107.982-71.086&#10;&#9;&#9;&#9;c9.376-0.877,17.225,6.972,16.348,16.348c-1.761,18.703-7.234,49.222-24.091,73.645&#10;&#9;&#9;&#9;C385.363,197.225,370.33,210.137,348.932,216.247z"/>
		<path style="fill:#FCE3A0;" d="M316.616,175.085l-72.734-19.489c-14.026-56.029,33.054-97.859,57.973-115.553&#10;&#9;&#9;&#9;c7.682-5.447,18.404-2.575,22.332,5.984c7.827,17.078,18.346,46.244,15.959,75.824&#10;&#9;&#9;&#9;C338.655,140.397,332.092,159.096,316.616,175.085z"/>
		<path style="fill:#FCE3A0;" d="M198.417,130.457l-0.34-17.49l-26.6-3.3c-22.2-11.95-47.1-16.23-63.21-17.75&#10;&#9;&#9;&#9;c-9.38-0.87-17.23,6.97-16.35,16.35c2.86,30.43,15.55,92.12,71.09,107.98l53.24-53.24&#10;&#9;&#9;&#9;C212.508,149.918,206.228,139.217,198.417,130.457z"/>
		<path style="fill:#F9D171;" d="M268.048,155.598l-60.64,16.25l8.84-8.84c-3.47-12.15-9.13-22.25-16.19-30.64&#10;&#9;&#9;&#9;c-1.16-1.39-2.37-2.74-3.61-4.04c-4.46-4.67-9.36-8.75-14.54-12.32c-3.37-2.32-6.86-4.43-10.43-6.34l15.45-18.74l-4.49-32.21&#10;&#9;&#9;&#9;v-0.01c1.79-4.72,3.61-8.98,5.31-12.68c3.93-8.56,14.65-11.43,22.33-5.98c3.32,2.36,7.02,5.14,10.94,8.33v0.01l2.25,13.01&#10;&#9;&#9;&#9;l13.1,0.95c9.63,9.82,18.96,21.72,25.44,35.38C269.788,114.538,273.457,134.017,268.048,155.598z"/>
		<path style="fill:#F3C23B;" d="M181.907,116.007c-3.37-2.32-6.86-4.43-10.43-6.34c0.77-25.2,9.52-48.92,16.27-63.64&#10;&#9;&#9;&#9;c3.93-8.56,14.65-11.43,22.33-5.98c7.17,5.1,16.2,12.2,25.07,21.06c0.41,0.41,0.81,0.82,1.22,1.24&#10;&#9;&#9;&#9;c-12.49,19.11-25.62,42.72-36.31,70.02c-1.16-1.39-2.37-2.74-3.61-4.04C191.988,123.658,187.088,119.577,181.907,116.007z"/>
		<path style="fill:#D97C41;" d="M394.238,255.967c0,6-1.17,11.99-3.51,17.64c-1.16,2.8-2.04,5.69-2.62,8.64&#10;&#9;&#9;&#9;c-0.59,2.96-0.89,5.97-0.89,9c0,6.11-1.21,12.1-3.51,17.63c-2.3,5.54-5.67,10.63-9.99,14.95c-2.14,2.14-4.06,4.48-5.73,6.99&#10;&#9;&#9;&#9;s-3.1,5.17-4.26,7.97c-2.34,5.64-5.75,10.71-9.99,14.95c-4.24,4.24-9.31,7.65-14.95,9.99c-2.8,1.16-5.46,2.59-7.97,4.26&#10;&#9;&#9;&#9;c-2.51,1.67-4.85,3.59-6.99,5.73c-4.32,4.32-9.41,7.69-14.95,9.99c-5.53,2.3-11.52,3.51-17.63,3.51c-3.03,0-6.04,0.3-9,0.89&#10;&#9;&#9;&#9;c-2.95,0.58-5.84,1.46-8.64,2.62c-5.65,2.34-11.64,3.51-17.64,3.51s-11.99-1.17-17.64-3.51c-2.8-1.16-5.69-2.04-8.64-2.62&#10;&#9;&#9;&#9;c-2.96-0.59-5.97-0.89-9-0.89c-3.82,0-7.6-0.48-11.24-1.4c-0.69-0.17-1.37-0.36-2.04-0.56c-1.48-0.44-2.93-0.96-4.35-1.55&#10;&#9;&#9;&#9;c-5.54-2.3-10.63-5.67-14.95-9.99c-2.14-2.14-4.48-4.06-6.99-5.73c-2.51-1.67-5.17-3.1-7.97-4.26&#10;&#9;&#9;&#9;c-5.64-2.34-10.71-5.75-14.95-9.99c-4.24-4.24-7.65-9.31-9.99-14.95c-1.16-2.8-2.59-5.46-4.26-7.97s-3.59-4.85-5.73-6.99&#10;&#9;&#9;&#9;c-4.32-4.32-7.69-9.41-9.99-14.95c-2.3-5.53-3.51-11.52-3.51-17.63c0-3.03-0.3-6.04-0.89-9c-0.58-2.95-1.46-5.84-2.62-8.64&#10;&#9;&#9;&#9;c-2.34-5.65-3.51-11.64-3.51-17.64s1.17-11.99,3.51-17.64c1.16-2.8,2.04-5.69,2.62-8.64c0.59-2.96,0.89-5.97,0.89-9&#10;&#9;&#9;&#9;c0-6.11,1.21-12.1,3.51-17.63c2.3-5.54,5.67-10.63,9.99-14.95c2.14-2.14,4.06-4.48,5.73-6.99c1.67-2.51,3.1-5.17,4.26-7.97&#10;&#9;&#9;&#9;c2.34-5.64,5.75-10.71,9.99-14.95s9.31-7.65,14.95-9.99c2.8-1.16,5.46-2.59,7.97-4.26c2.51-1.67,4.85-3.59,6.99-5.73&#10;&#9;&#9;&#9;c1.99-1.99,4.15-3.78,6.44-5.35c2.18-1.51,4.48-2.82,6.88-3.92c0.54-0.25,1.08-0.49,1.63-0.72c5.53-2.3,11.52-3.51,17.63-3.51&#10;&#9;&#9;&#9;c3.03,0,6.04-0.3,9-0.89c2.95-0.58,5.84-1.46,8.64-2.62c5.65-2.34,11.64-3.51,17.64-3.51s11.99,1.17,17.64,3.51&#10;&#9;&#9;&#9;c5.59,2.32,11.58,3.51,17.64,3.51c6.11,0,12.1,1.21,17.63,3.51c5.54,2.3,10.63,5.67,14.95,9.99c2.14,2.14,4.48,4.06,6.99,5.73&#10;&#9;&#9;&#9;c2.51,1.67,5.17,3.1,7.97,4.26c5.64,2.34,10.71,5.75,14.95,9.99s7.65,9.31,9.99,14.95c1.16,2.8,2.59,5.46,4.26,7.97&#10;&#9;&#9;&#9;c1.67,2.51,3.59,4.85,5.73,6.99c4.32,4.32,7.69,9.41,9.99,14.95c2.3,5.53,3.51,11.52,3.51,17.63c0,3.03,0.3,6.04,0.89,9&#10;&#9;&#9;&#9;c0.58,2.95,1.46,5.84,2.62,8.64C393.068,243.978,394.238,249.967,394.238,255.967z"/>
		<path style="fill:#AF602D;" d="M209.447,385.817c-0.69-0.17-1.37-0.36-2.04-0.56c-1.48-0.44-2.93-0.96-4.35-1.55&#10;&#9;&#9;&#9;c-5.54-2.3-10.63-5.67-14.95-9.99c-2.14-2.14-4.48-4.06-6.99-5.73c-2.51-1.67-5.17-3.1-7.97-4.26&#10;&#9;&#9;&#9;c-5.64-2.34-10.71-5.75-14.95-9.99c-4.24-4.24-7.65-9.31-9.99-14.95c-1.16-2.8-2.59-5.46-4.26-7.97s-3.59-4.85-5.73-6.99&#10;&#9;&#9;&#9;c-4.32-4.32-7.69-9.41-9.99-14.95c-2.3-5.53-3.51-11.52-3.51-17.63c0-3.03-0.3-6.04-0.89-9c-0.58-2.95-1.46-5.84-2.62-8.64&#10;&#9;&#9;&#9;c-2.34-5.65-3.51-11.64-3.51-17.64s1.17-11.99,3.51-17.64c1.16-2.8,2.04-5.69,2.62-8.64c0.59-2.96,0.89-5.97,0.89-9&#10;&#9;&#9;&#9;c0-6.11,1.21-12.1,3.51-17.63c2.3-5.54,5.67-10.63,9.99-14.95c2.14-2.14,4.06-4.48,5.73-6.99c1.67-2.51,3.1-5.17,4.26-7.97&#10;&#9;&#9;&#9;c2.34-5.64,5.75-10.71,9.99-14.95s9.31-7.65,14.95-9.99c2.8-1.16,5.46-2.59,7.97-4.26c2.51-1.67,4.85-3.59,6.99-5.73&#10;&#9;&#9;&#9;c1.99-1.99,4.15-3.78,6.44-5.35c2.18-1.51,4.48-2.82,6.88-3.92C174.417,195.837,161.568,285.567,209.447,385.817z"/>
		<path style="fill:#FFEBCE;" d="M361.377,255.967c0,58.22-47.19,105.41-105.41,105.41c-24.47,0-47-8.34-64.88-22.33l-25.35-32.89&#10;&#9;&#9;&#9;l-7.41-82.98l27.61-45.99c18.61-16.57,43.15-26.63,70.03-26.63C314.187,150.557,361.377,197.747,361.377,255.967z"/>
		<path style="fill:#FFD9A0;" d="M191.088,339.047c-1.05-0.83-2.09-1.67-3.11-2.53c-22.89-19.33-37.42-48.24-37.42-80.55&#10;&#9;&#9;&#9;c0-27.77,10.74-53.02,28.28-71.85c2.26-2.42,4.62-4.74,7.1-6.93C174.608,224.447,172.667,279.367,191.088,339.047z"/>
		<g>
			<g>
				<ellipse style="fill:#FFA1AC;" cx="176.411" cy="261.531" rx="29.355" ry="23.377"/>
				<ellipse style="fill:#FFA1AC;" cx="335.524" cy="261.531" rx="29.355" ry="23.377"/>
			</g>
		</g>
	</g>
	<g>
		<path style="fill:none;stroke:#000000;stroke-width:15;stroke-linecap:round;stroke-linejoin:round;stroke-miterlimit:10;" d="&#10;&#9;&#9;&#9;M221.215,47.975c7.33-14.62,16.152-26.537,23.192-35.037c6.01-7.25,17.11-7.25,23.12,0c7.04,8.51,15.774,20.222,23.094,34.852"/>
		<path style="fill:none;stroke:#000000;stroke-width:15;stroke-linecap:round;stroke-linejoin:round;stroke-miterlimit:10;" d="&#10;&#9;&#9;&#9;M121.878,93.217c-0.26-4.43-0.33-8.74-0.24-12.88 M126.658,45.588c3.69-5.66,10.99-8.4,17.81-5.87&#10;&#9;&#9;&#9;c10.35,3.85,23.77,9.63,37.42,18.64"/>
		<path style="fill:none;stroke:#000000;stroke-width:15;stroke-linecap:round;stroke-linejoin:round;stroke-miterlimit:10;" d="&#10;&#9;&#9;&#9;M58.464,182.067c-8.996-13.658-14.906-27.257-18.747-37.603c-3.274-8.83,2.276-18.443,11.56-20.023&#10;&#9;&#9;&#9;c10.89-1.842,25.399-3.55,41.729-2.574"/>
		<path style="fill:none;stroke:#000000;stroke-width:15;stroke-linecap:round;stroke-linejoin:round;stroke-miterlimit:10;" d="&#10;&#9;&#9;&#9;M47.975,290.72c-14.62-7.33-26.537-16.152-35.037-23.192c-7.25-6.01-7.25-17.11,0-23.12c8.51-7.04,20.222-15.774,34.852-23.094"/>
		<path style="fill:none;stroke:#000000;stroke-width:15;stroke-linecap:round;stroke-linejoin:round;stroke-miterlimit:10;" d="&#10;&#9;&#9;&#9;M58.357,330.047c-9.01,13.65-14.79,27.07-18.64,37.42c-3.27,8.83,2.28,18.45,11.56,20.03c2.47,0.42,5.14,0.83,7.98,1.2"/>
		<path style="fill:none;stroke:#000000;stroke-width:15;stroke-linecap:round;stroke-linejoin:round;stroke-miterlimit:10;" d="&#10;&#9;&#9;&#9;M182.067,453.471c-13.658,8.996-27.257,14.906-37.603,18.747c-8.83,3.274-18.443-2.276-20.023-11.56&#10;&#9;&#9;&#9;c-1.842-10.89-3.55-25.399-2.574-41.729"/>
		<path style="fill:none;stroke:#000000;stroke-width:15;stroke-linecap:round;stroke-linejoin:round;stroke-miterlimit:10;" d="&#10;&#9;&#9;&#9;M290.72,463.96c-7.33,14.62-16.152,26.537-23.192,35.037c-6.01,7.25-17.11,7.25-23.12,0c-7.04-8.51-15.774-20.222-23.094-34.852"/>
		<path style="fill:none;stroke:#000000;stroke-width:15;stroke-linecap:round;stroke-linejoin:round;stroke-miterlimit:10;" d="&#10;&#9;&#9;&#9;M390.06,418.719c0.962,16.326-0.72,31.058-2.566,41.939c-1.58,9.284-11.193,14.834-20.022,11.56&#10;&#9;&#9;&#9;c-10.352-3.85-23.771-9.625-37.426-18.635"/>
		<path style="fill:none;stroke:#000000;stroke-width:15;stroke-linecap:round;stroke-linejoin:round;stroke-miterlimit:10;" d="&#10;&#9;&#9;&#9;M453.471,329.868c8.996,13.658,14.906,27.257,18.747,37.603c3.274,8.83-2.276,18.443-11.56,20.022&#10;&#9;&#9;&#9;c-10.89,1.842-25.399,3.55-41.729,2.574"/>
		<path style="fill:none;stroke:#000000;stroke-width:15;stroke-linecap:round;stroke-linejoin:round;stroke-miterlimit:10;" d="&#10;&#9;&#9;&#9;M463.96,221.215c14.62,7.33,26.537,16.152,35.037,23.192c7.25,6.01,7.25,17.11,0,23.12c-8.51,7.04-20.222,15.774-34.852,23.094"/>
		<path style="fill:none;stroke:#000000;stroke-width:15;stroke-linecap:round;stroke-linejoin:round;stroke-miterlimit:10;" d="&#10;&#9;&#9;&#9;M418.719,121.875c16.326-0.962,31.058,0.72,41.939,2.566c9.284,1.58,14.834,11.193,11.56,20.023&#10;&#9;&#9;&#9;c-3.85,10.352-9.625,23.771-18.635,37.426"/>
		<path style="fill:none;stroke:#000000;stroke-width:15;stroke-linecap:round;stroke-linejoin:round;stroke-miterlimit:10;" d="&#10;&#9;&#9;&#9;M329.868,58.464c13.658-8.996,27.257-14.906,37.603-18.747c8.83-3.274,18.443,2.276,20.022,11.56&#10;&#9;&#9;&#9;c1.842,10.89,3.55,25.399,2.574,41.729"/>
		<path style="fill:none;stroke:#000000;stroke-width:15;stroke-linecap:round;stroke-linejoin:round;stroke-miterlimit:10;" d="&#10;&#9;&#9;&#9;M268.993,119.077c-6.209-32.128-32.228-60.086-58.915-79.03c-7.68-5.45-18.4-2.58-22.33,5.98&#10;&#9;&#9;&#9;c-6.75,14.72-15.488,38.077-16.258,63.277"/>
		<path style="fill:none;stroke:#000000;stroke-width:15;stroke-linecap:round;stroke-linejoin:round;stroke-miterlimit:10;" d="&#10;&#9;&#9;&#9;M198.092,130.096c-21.472-24.118-57.549-35.142-89.826-38.175c-9.376-0.88-17.225,6.966-16.348,16.344&#10;&#9;&#9;&#9;c1.514,16.123,5.625,40.719,17.558,62.928"/>
		<path style="fill:none;stroke:#000000;stroke-width:15;stroke-linecap:round;stroke-linejoin:round;stroke-miterlimit:10;" d="&#10;&#9;&#9;&#9;M143.93,176.242c-30.928-10.687-68.149-2.133-97.9,11.507c-8.56,3.926-11.434,14.645-5.986,22.328&#10;&#9;&#9;&#9;c9.373,13.206,25.231,32.451,46.67,45.718"/>
		<path style="fill:none;stroke:#000000;stroke-width:15;stroke-linecap:round;stroke-linejoin:round;stroke-miterlimit:10;" d="&#10;&#9;&#9;&#9;M119.077,242.942c-32.128,6.209-60.086,32.228-79.03,58.915c-5.45,7.68-2.58,18.4,5.98,22.33&#10;&#9;&#9;&#9;c14.72,6.75,38.077,15.488,63.277,16.258"/>
		<path style="fill:none;stroke:#000000;stroke-width:15;stroke-linecap:round;stroke-linejoin:round;stroke-miterlimit:10;" d="&#10;&#9;&#9;&#9;M130.128,313.814c-24.177,21.502-35.181,57.642-38.208,89.855c-0.88,9.376,6.966,17.225,16.344,16.348&#10;&#9;&#9;&#9;c16.123-1.514,40.719-5.625,62.928-17.558"/>
		<path style="fill:none;stroke:#000000;stroke-width:15;stroke-linecap:round;stroke-linejoin:round;stroke-miterlimit:10;" d="&#10;&#9;&#9;&#9;M176.242,368.005c-10.687,30.928-2.133,68.149,11.507,97.9c3.926,8.56,14.645,11.434,22.328,5.986&#10;&#9;&#9;&#9;c13.206-9.373,32.451-25.231,45.718-46.67"/>
		<path style="fill:none;stroke:#000000;stroke-width:15;stroke-linecap:round;stroke-linejoin:round;stroke-miterlimit:10;" d="&#10;&#9;&#9;&#9;M242.942,392.858c6.209,32.128,32.228,60.086,58.915,79.03c7.68,5.45,18.4,2.58,22.33-5.98&#10;&#9;&#9;&#9;c6.75-14.72,15.488-38.077,16.258-63.277"/>
		<path style="fill:none;stroke:#000000;stroke-width:15;stroke-linecap:round;stroke-linejoin:round;stroke-miterlimit:10;" d="&#10;&#9;&#9;&#9;M313.833,381.828c21.464,24.117,57.534,35.151,89.836,38.187c9.376,0.88,17.225-6.966,16.348-16.344&#10;&#9;&#9;&#9;c-1.514-16.123-5.625-40.719-17.558-62.928"/>
		<path style="fill:none;stroke:#000000;stroke-width:15;stroke-linecap:round;stroke-linejoin:round;stroke-miterlimit:10;" d="&#10;&#9;&#9;&#9;M368.005,335.693c30.928,10.687,68.149,2.133,97.9-11.507c8.56-3.926,11.434-14.645,5.986-22.328&#10;&#9;&#9;&#9;c-9.373-13.206-25.231-32.451-46.67-45.718"/>
		<path style="fill:none;stroke:#000000;stroke-width:15;stroke-linecap:round;stroke-linejoin:round;stroke-miterlimit:10;" d="&#10;&#9;&#9;&#9;M392.858,268.993c32.128-6.209,60.086-32.228,79.03-58.915c5.45-7.68,2.58-18.4-5.98-22.33&#10;&#9;&#9;&#9;c-14.72-6.75-38.077-15.488-63.277-16.258"/>
		<path style="fill:none;stroke:#000000;stroke-width:15;stroke-linecap:round;stroke-linejoin:round;stroke-miterlimit:10;" d="&#10;&#9;&#9;&#9;M381.602,198.302c24.313-21.48,35.375-57.711,38.413-90.037c0.88-9.376-6.966-17.225-16.344-16.348&#10;&#9;&#9;&#9;c-16.123,1.514-40.719,5.625-62.928,17.558"/>
		<path style="fill:none;stroke:#000000;stroke-width:15;stroke-linecap:round;stroke-linejoin:round;stroke-miterlimit:10;" d="&#10;&#9;&#9;&#9;M335.693,143.93c10.687-30.928,2.133-68.149-11.507-97.9c-3.926-8.56-14.645-11.434-22.328-5.986&#10;&#9;&#9;&#9;c-13.206,9.373-32.451,25.231-45.718,46.67"/>
		<path style="fill:none;stroke:#000000;stroke-width:15;stroke-linecap:round;stroke-linejoin:round;stroke-miterlimit:10;" d="&#10;&#9;&#9;&#9;M329.517,368.888c-2.02,1.45-3.93,3.07-5.69,4.83c-8.46,8.46-20.114,13.5-32.58,13.5c-5.929,0-11.951,1.153-17.64,3.51&#10;&#9;&#9;&#9;c-11.301,4.68-23.98,4.68-35.28,0c-5.677-2.352-11.698-3.51-17.64-3.51c-12.45,0-24.109-5.029-32.58-13.5&#10;&#9;&#9;&#9;c-4.345-4.345-9.482-7.721-14.96-9.99c-11.3-4.688-20.25-13.637-24.94-24.94c-2.269-5.478-5.644-10.614-9.99-14.96&#10;&#9;&#9;&#9;c-8.46-8.46-13.5-20.114-13.5-32.58c0-5.929-1.153-11.951-3.51-17.64c-4.68-11.301-4.68-23.98,0-35.28&#10;&#9;&#9;&#9;c2.352-5.677,3.51-11.698,3.51-17.64c0-12.45,5.029-24.109,13.5-32.58c4.345-4.345,7.721-9.482,9.99-14.96&#10;&#9;&#9;&#9;c4.688-11.3,13.637-20.25,24.94-24.94c5.478-2.269,10.614-5.644,14.96-9.99c8.46-8.46,20.114-13.5,32.58-13.5&#10;&#9;&#9;&#9;c5.929,0,11.951-1.153,17.64-3.51c11.301-4.68,23.98-4.68,35.28,0c5.59,2.32,11.58,3.51,17.64,3.51&#10;&#9;&#9;&#9;c12.45,0,24.109,5.029,32.58,13.5c4.345,4.345,9.482,7.721,14.96,9.99c11.3,4.688,20.25,13.637,24.94,24.94&#10;&#9;&#9;&#9;c2.269,5.478,5.644,10.614,9.99,14.96c8.46,8.46,13.5,20.114,13.5,32.58c0,5.929,1.153,11.951,3.51,17.64&#10;&#9;&#9;&#9;c4.68,11.301,4.68,23.98,0,35.28c-2.352,5.677-3.51,11.698-3.51,17.64c0,12.45-5.029,24.109-13.5,32.58&#10;&#9;&#9;&#9;c-4.345,4.345-7.721,9.482-9.99,14.96c-2.646,6.379-5.58,9.647-5.58,9.84"/>
		<g>
			
				<line style="fill:none;stroke:#000000;stroke-width:15;stroke-linecap:round;stroke-linejoin:round;stroke-miterlimit:10;" x1="193.519" y1="227.027" x2="193.519" y2="239.027"/>
			
				<line style="fill:none;stroke:#000000;stroke-width:15;stroke-linecap:round;stroke-linejoin:round;stroke-miterlimit:10;" x1="318.416" y1="227.027" x2="318.416" y2="239.027"/>
			<path style="fill:none;stroke:#000000;stroke-width:15;stroke-linecap:round;stroke-linejoin:round;stroke-miterlimit:10;" d="&#10;&#9;&#9;&#9;&#9;M239.503,238.67c8.709,9.993,24.206,10.008,32.928,0"/>
		</g>
	</g>
</g>















</svg>
