<svg id="Capa_1" enable-background="new 0 0 512 512" height="512" viewBox="0 0 512 512" width="512" xmlns="http://www.w3.org/2000/svg"><g><path d="m384.333 509.849c-52.487-19.149-93.659-54.671-119.066-102.723-18.539-35.061-29.026-77.123-31.167-125.017-.872-19.496 14.225-36.006 33.719-36.877 19.489-.903 36.006 14.225 36.877 33.719 1.671 37.376 9.424 69.388 23.043 95.142 17.338 32.791 44.527 56.13 80.815 69.37 18.334 6.689 27.772 26.971 21.083 45.303-6.689 18.333-26.971 27.774-45.304 21.083z" fill="#38d39a"/><path d="m327.739 374.093c-13.619-25.754-21.371-57.765-23.043-95.142-.871-19.494-17.388-34.622-36.877-33.719-.965.043-1.915.135-2.857.253-.798.54-1.588 1.091-2.354 1.673-1.273-.16-2.556-.26-3.841-.327-14.9 4.69-25.398 18.932-24.667 35.278 2.141 47.894 12.628 89.956 31.167 125.017 9.397 17.772 20.956 33.824 34.44 47.974 2.867-3.177 5.685-6.816 8.403-11.002 1.759-2.711 3.419-5.561 4.975-8.541 2.838 1.803 5.701 3.442 8.581 4.909 11.354 5.789 22.633 8.724 33.521 8.725h.001c9.972 0 19.233-2.428 27.52-7.214 2.48-1.432 5.385-3.398 8.385-6.022-27.654-13.824-48.921-34.564-63.354-61.862z" fill="#00c072"/><g><g><path d="m311.139 222.512c0 12.77 11.079 24.224 28.621 32.018 14.716 6.538 33.98 10.5 55.065 10.5 26.777 0 50.617-6.39 65.936-16.332 11.121-7.218 17.75-16.309 17.75-26.187 0-9.877-6.629-18.968-17.75-26.187-15.318-9.942-39.158-16.332-65.936-16.332-21.085 0-40.349 3.962-55.065 10.5-17.541 7.795-28.621 19.25-28.621 32.02z" fill="#f5c956"/></g><g><path d="m283.57 270.263c-11.059 6.385-15.439 21.708-13.418 40.796 1.696 16.014 7.896 34.678 18.439 52.938 13.389 23.19 30.842 40.641 47.112 48.936 11.812 6.022 22.999 7.218 31.553 2.279s13.112-15.225 13.803-28.465c.951-18.237-5.435-42.078-18.824-65.268-10.543-18.26-23.606-32.962-36.626-42.437-15.52-11.296-30.98-15.163-42.039-8.779z" fill="#f5c956"/></g><g><path d="m228.431 270.264c-11.059-6.385-26.519-2.517-42.039 8.777-13.02 9.475-26.084 24.177-36.626 42.437-13.389 23.19-19.775 47.031-18.824 65.268.691 13.24 5.249 23.527 13.803 28.466s19.742 3.743 31.553-2.279c16.269-8.295 33.723-25.746 47.112-48.936 10.543-18.26 16.743-36.924 18.439-52.938 2.021-19.088-2.359-34.41-13.418-40.795z" fill="#f5c956"/></g><g><path d="m200.861 222.512c0-12.77-11.079-24.224-28.621-32.018-14.716-6.539-33.98-10.5-55.065-10.5-26.777 0-50.618 6.39-65.936 16.332-11.121 7.218-17.75 16.309-17.75 26.187s6.629 18.968 17.75 26.187c15.318 9.942 39.158 16.332 65.936 16.332 21.085 0 40.349-3.962 55.065-10.5 17.541-7.796 28.621-19.251 28.621-32.02z" fill="#f5c956"/></g><g><path d="m228.43 174.76c11.059-6.385 15.439-21.707 13.418-40.796-1.696-16.014-7.896-34.678-18.439-52.938-13.389-23.19-30.843-40.641-47.112-48.936-11.812-6.022-22.999-7.218-31.553-2.279s-13.113 15.225-13.803 28.466c-.951 18.237 5.435 42.078 18.824 65.268 10.543 18.26 23.606 32.962 36.626 42.437 15.52 11.295 30.98 15.162 42.039 8.778z" fill="#f5c956"/></g><g><path d="m283.57 174.758c11.059 6.385 26.519 2.517 42.039-8.777 13.02-9.475 26.084-24.177 36.626-42.437 13.389-23.19 19.775-47.031 18.824-65.268-.691-13.24-5.249-23.527-13.803-28.465-8.554-4.939-19.742-3.743-31.553 2.279-16.269 8.295-33.723 25.746-47.112 48.936-10.543 18.26-16.743 36.924-18.439 52.938-2.021 19.087 2.359 34.409 13.418 40.794z" fill="#f5c956"/></g></g><g><g><path d="m255.999 277.65c-12.77 0-24.225 11.079-32.018 28.621-6.538 14.716-10.5 33.98-10.5 55.065 0 26.777 6.39 50.618 16.332 65.936 7.218 11.121 16.309 17.75 26.187 17.75 9.877 0 18.968-6.629 26.187-17.75 9.942-15.318 16.332-39.158 16.332-65.936 0-21.085-3.962-40.349-10.501-55.065-7.794-17.541-19.249-28.621-32.019-28.621z" fill="#f7e969"/></g><g><path d="m208.247 250.081c-6.385-11.059-21.707-15.439-40.796-13.418-16.014 1.695-34.678 7.896-52.938 18.439-23.19 13.389-40.641 30.843-48.936 47.112-6.022 11.812-7.218 22.999-2.279 31.553s15.225 13.112 28.466 13.803c18.237.951 42.078-5.435 65.268-18.824 18.26-10.542 32.962-23.606 42.438-36.626 11.295-15.52 15.162-30.98 8.777-42.039z" fill="#f7e969"/></g><g><path d="m208.247 194.942c6.385-11.059 2.517-26.519-8.777-42.039-9.475-13.02-24.177-26.083-42.437-36.626-23.19-13.389-47.031-19.775-65.268-18.824-13.24.691-23.527 5.249-28.465 13.803-4.939 8.554-3.743 19.742 2.279 31.553 8.295 16.269 25.746 33.723 48.936 47.112 18.26 10.543 36.924 16.743 52.938 18.439 19.087 2.021 34.409-2.359 40.794-13.418z" fill="#f7e969"/></g><g><path d="m255.999 167.372c12.77 0 24.225-11.08 32.018-28.621 6.539-14.716 10.501-33.98 10.501-55.065 0-26.778-6.39-50.618-16.332-65.936-7.218-11.121-16.309-17.75-26.187-17.75s-18.968 6.629-26.187 17.75c-9.942 15.318-16.332 39.158-16.332 65.936 0 21.085 3.962 40.349 10.5 55.065 7.795 17.541 19.25 28.621 32.019 28.621z" fill="#f7e969"/></g><g><path d="m303.751 194.941c6.385 11.059 21.707 15.439 40.796 13.418 16.014-1.695 34.678-7.896 52.938-18.439 23.19-13.389 40.641-30.843 48.936-47.112 6.022-11.812 7.218-22.999 2.279-31.553s-15.225-13.112-28.465-13.803c-18.237-.951-42.078 5.435-65.268 18.824-18.26 10.542-32.962 23.606-42.437 36.626-11.296 15.52-15.163 30.98-8.779 42.039z" fill="#f7e969"/></g><g><path d="m303.753 250.081c-6.385 11.059-2.517 26.519 8.777 42.039 9.475 13.021 24.177 26.084 42.437 36.626 23.19 13.389 47.031 19.775 65.268 18.824 13.24-.691 23.527-5.249 28.465-13.803 4.939-8.554 3.743-19.742-2.279-31.553-8.295-16.269-25.746-33.723-48.936-47.112-18.26-10.543-36.924-16.743-52.938-18.439-19.087-2.021-34.409 2.359-40.794 13.418z" fill="#f7e969"/></g></g><path d="m322.751 307.573c.664-.258 1.34-.488 2.041-.655 9.595-2.285 18.452-7.873 24.704-16.479 6.252-8.605 8.829-18.755 8.038-28.587-.336-4.172 1.009-8.312 3.733-11.49 6.419-7.489 10.3-17.215 10.3-27.852s-3.881-20.364-10.3-27.852c-2.724-3.178-4.069-7.318-3.733-11.49.791-9.831-1.786-19.981-8.038-28.587-6.252-8.605-15.109-14.193-24.704-16.479-4.072-.97-7.593-3.529-9.774-7.101-5.139-8.418-13.19-15.115-23.306-18.402s-20.566-2.602-29.672 1.189c-3.864 1.609-8.217 1.609-12.081 0-9.106-3.791-19.555-4.476-29.672-1.189-10.116 3.287-18.167 9.983-23.306 18.402-.714 1.17-1.585 2.218-2.559 3.151-53.989 60.645-37.924 208.585 128.329 173.421z" fill="#e9a982"/><path d="m249.957 331.232c3.864-1.608 8.217-1.608 12.081 0 9.106 3.791 19.557 4.477 29.673 1.19s18.167-9.984 23.306-18.403c1.805-2.958 4.538-5.205 7.733-6.446-150.733-6.718-146.932-115.329-128.328-173.421-2 1.914-4.477 3.298-7.215 3.951-9.594 2.286-18.451 7.873-24.703 16.479-6.252 8.605-8.83 18.755-8.039 28.587.336 4.172-1.009 8.312-3.733 11.49-6.419 7.489-10.301 17.215-10.301 27.853 0 10.637 3.881 20.364 10.3 27.852 2.724 3.178 4.069 7.318 3.733 11.489-.791 9.831 1.786 19.981 8.038 28.586 6.252 8.606 15.109 14.193 24.704 16.479 4.071.97 7.593 3.529 9.774 7.101 5.139 8.419 13.19 15.115 23.306 18.402 10.117 3.286 20.566 2.601 29.671-1.189z" fill="#de8957"/><g fill="#425460"><path d="m191.666 231.385c-4.143 0-7.5-3.357-7.5-7.5v-12.361c0-4.143 3.357-7.5 7.5-7.5s7.5 3.357 7.5 7.5v12.361c0 4.142-3.357 7.5-7.5 7.5z"/><path d="m320.333 231.385c-4.143 0-7.5-3.357-7.5-7.5v-12.361c0-4.143 3.357-7.5 7.5-7.5s7.5 3.357 7.5 7.5v12.361c0 4.142-3.357 7.5-7.5 7.5z"/><path d="m256 238.744c-8.667 0-16.91-3.754-22.614-10.299-2.722-3.122-2.397-7.86.726-10.581 3.122-2.723 7.859-2.398 10.581.725 2.855 3.275 6.977 5.154 11.308 5.154s8.452-1.879 11.308-5.154c2.72-3.122 7.458-3.449 10.581-.725 3.123 2.721 3.447 7.459.726 10.581-5.706 6.545-13.949 10.299-22.616 10.299z"/></g></g></svg>