<svg id="Capa_1" enable-background="new 0 0 512 512" height="512" viewBox="0 0 512 512" width="512" xmlns="http://www.w3.org/2000/svg"><g><g fill="#f2c13b"><path d="m8.404 232.913c-11.205 13.352-11.205 32.822 0 46.175 16.521 19.686 42.608 32.395 71.976 32.395 13.636 0 26.564-2.74 38.155-7.645 42.256-17.882 42.256-77.791 0-95.673-11.592-4.906-24.52-7.645-38.155-7.645-29.368-.002-55.455 12.707-71.976 32.393z"/><path d="m145.84 351.13c-10.044 7.586-18.881 17.412-25.699 29.221-14.684 25.434-16.721 54.379-7.933 78.53 5.961 16.38 22.822 26.115 39.988 23.087 25.309-4.465 49.358-20.702 64.042-46.136 6.818-11.809 10.909-24.374 12.457-36.866 5.642-45.535-46.241-75.489-82.855-47.836z"/><path d="m391.859 380.351c-6.818-11.809-15.654-21.635-25.698-29.221-36.614-27.653-88.497 2.301-82.856 47.837 1.548 12.491 5.639 25.057 12.457 36.866 14.684 25.434 38.733 41.671 64.042 46.136 17.166 3.028 34.028-6.707 39.988-23.087 8.788-24.152 6.751-53.098-7.933-78.531z"/><path d="m503.596 279.087c11.205-13.352 11.205-32.822 0-46.175-16.521-19.686-42.608-32.395-71.976-32.395-13.636 0-26.564 2.74-38.155 7.645-42.256 17.882-42.256 77.791 0 95.673 11.592 4.906 24.52 7.645 38.155 7.645 29.368.002 55.455-12.707 71.976-32.393z"/><path d="m399.792 53.119c-5.961-16.38-22.822-26.115-39.988-23.087-25.309 4.465-49.358 20.702-64.042 46.136-6.818 11.809-10.909 24.374-12.457 36.866-5.641 45.535 46.241 75.49 82.856 47.837 10.044-7.586 18.881-17.412 25.698-29.221 14.684-25.434 16.721-54.38 7.933-78.531z"/><path d="m228.695 113.034c-1.548-12.492-5.639-25.058-12.457-36.866-14.684-25.434-38.733-41.671-64.042-46.136-17.166-3.028-34.028 6.707-39.988 23.087-8.788 24.151-6.751 53.097 7.933 78.53 6.818 11.809 15.654 21.635 25.699 29.221 36.614 27.653 88.497-2.301 82.855-47.836z"/></g><path d="m380.206 147.857c-2.277-3.02-4.763-5.899-7.464-8.599-13.849-13.85-32.233-22.279-51.765-23.736l-.055-.004c-4.225-.322-8.32-2.023-11.531-4.788-6.797-5.855-14.465-10.488-22.654-13.809-1.624 5.341-2.766 10.733-3.432 16.113-5.641 45.535 46.241 75.49 82.856 47.837 5.016-3.79 9.732-8.139 14.045-13.014z" fill="#f2af3b"/><path d="m393.465 303.837c3.089 1.307 6.276 2.455 9.543 3.444 11.675-14.509 18.087-32.606 18.087-51.281s-6.412-36.771-18.086-51.281c-3.267.989-6.454 2.137-9.543 3.444-42.257 17.883-42.257 77.791-.001 95.674z" fill="#f2af3b"/><path d="m320.978 396.478c19.531-1.457 37.914-9.887 51.764-23.736 2.701-2.701 5.188-5.579 7.465-8.6-4.313-4.875-9.029-9.223-14.046-13.013-36.614-27.653-88.497 2.301-82.856 47.837.666 5.379 1.808 10.772 3.432 16.113 8.19-3.321 15.858-7.954 22.654-13.809 3.221-2.773 7.327-4.474 11.587-4.792z" fill="#f2af3b"/><path d="m145.84 351.13c-5.017 3.789-9.733 8.138-14.046 13.013 2.277 3.021 4.763 5.899 7.464 8.6 13.849 13.85 32.233 22.279 51.786 23.737 4.237.316 8.345 2.018 11.565 4.791 6.797 5.855 14.465 10.488 22.655 13.809 1.624-5.341 2.766-10.733 3.432-16.113 5.641-45.536-46.242-75.49-82.856-47.837z" fill="#f2af3b"/><path d="m118.535 208.163c-3.089-1.307-6.276-2.455-9.543-3.444-11.674 14.509-18.087 32.606-18.086 51.281 0 18.675 6.412 36.772 18.087 51.28 3.267-.989 6.453-2.137 9.542-3.444 42.256-17.882 42.256-77.79 0-95.673z" fill="#f2af3b"/><path d="m191.022 115.522c-19.531 1.457-37.914 9.887-51.764 23.736-2.701 2.701-5.188 5.579-7.465 8.6 4.313 4.875 9.029 9.224 14.046 13.013 36.614 27.653 88.497-2.301 82.856-47.837-.667-5.38-1.808-10.772-3.432-16.113-8.19 3.321-15.858 7.954-22.655 13.809-3.22 2.772-7.326 4.474-11.586 4.792z" fill="#f2af3b"/><path d="m279.087 8.404c-13.352-11.205-32.822-11.205-46.175 0-19.686 16.521-32.395 42.608-32.395 71.976 0 13.636 2.74 26.564 7.645 38.155 17.882 42.256 77.791 42.256 95.673 0 4.906-11.592 7.645-24.52 7.645-38.155.002-29.368-12.707-55.455-32.393-71.976z" fill="#f8d071"/><path d="m160.87 145.84c-7.586-10.044-17.412-18.881-29.221-25.699-25.434-14.684-54.379-16.721-78.53-7.933-16.38 5.961-26.115 22.822-23.087 39.988 4.465 25.309 20.702 49.358 46.135 64.043 11.809 6.818 24.374 10.909 36.866 12.457 45.536 5.641 75.49-46.242 47.837-82.856z" fill="#f8d071"/><path d="m113.034 283.305c-12.492 1.548-25.057 5.639-36.866 12.457-25.434 14.684-41.671 38.733-46.135 64.042-3.028 17.166 6.707 34.028 23.087 39.988 24.151 8.788 53.096 6.751 78.53-7.933 11.809-6.818 21.635-15.654 29.221-25.698 27.652-36.615-2.302-88.498-47.837-82.856z" fill="#f8d071"/><path d="m232.913 503.596c13.352 11.205 32.822 11.205 46.175 0 19.686-16.521 32.395-42.608 32.395-71.976 0-13.636-2.74-26.564-7.645-38.155-17.882-42.256-77.791-42.256-95.673 0-4.906 11.592-7.645 24.52-7.645 38.155-.002 29.368 12.707 55.455 32.393 71.976z" fill="#f8d071"/><path d="m481.968 359.804c-4.465-25.309-20.702-49.358-46.135-64.042-11.809-6.818-24.375-10.909-36.866-12.457-45.535-5.641-75.49 46.241-47.837 82.856 7.586 10.044 17.412 18.881 29.221 25.698 25.434 14.684 54.379 16.722 78.53 7.933 16.38-5.961 26.115-22.822 23.087-39.988z" fill="#f8d071"/><path d="m458.881 112.208c-24.151-8.788-53.096-6.751-78.53 7.933-11.809 6.818-21.635 15.654-29.221 25.699-27.653 36.614 2.301 88.497 47.837 82.856 12.492-1.548 25.057-5.639 36.866-12.457 25.433-14.684 41.671-38.733 46.135-64.043 3.028-17.166-6.707-34.028-23.087-39.988z" fill="#f8d071"/><path d="m256 421.094c18.676 0 36.773-6.412 51.281-18.087-.989-3.267-2.137-6.454-3.444-9.543-17.882-42.256-77.791-42.256-95.673 0-1.307 3.089-2.455 6.276-3.444 9.543 14.507 11.675 32.604 18.087 51.28 18.087z" fill="#f2c13b"/><path d="m160.87 366.16c27.653-36.614-2.301-88.497-47.837-82.856-5.379.666-10.772 1.808-16.113 3.432 3.321 8.19 7.954 15.857 13.808 22.654 2.774 3.221 4.475 7.328 4.791 11.565l.038.481c1.553 19.36 9.959 37.564 23.699 51.305 2.701 2.701 5.578 5.188 8.599 7.465 4.877-4.312 9.226-9.028 13.015-14.046z" fill="#f2c13b"/><path d="m113.034 228.695c45.535 5.641 75.49-46.241 47.837-82.856-3.789-5.017-8.138-9.733-13.014-14.047-3.02 2.277-5.898 4.764-8.598 7.465-13.752 13.751-22.159 31.97-23.704 51.346l-.034.441c-.316 4.236-2.017 8.344-4.791 11.564-5.854 6.797-10.488 14.465-13.809 22.654 5.34 1.626 10.733 2.767 16.113 3.433z" fill="#f2c13b"/><path d="m256 90.906c-18.676 0-36.773 6.412-51.281 18.087.989 3.267 2.137 6.453 3.444 9.543 17.882 42.256 77.791 42.256 95.673 0 1.307-3.089 2.455-6.276 3.444-9.542-14.507-11.676-32.605-18.088-51.28-18.088z" fill="#f2c13b"/><path d="m398.966 228.695c5.38-.667 10.772-1.808 16.113-3.432-3.321-8.19-7.954-15.858-13.809-22.656-2.774-3.22-4.475-7.326-4.791-11.563l-.034-.441c-1.545-19.375-9.953-37.595-23.703-51.345-2.701-2.701-5.578-5.188-8.599-7.465-4.876 4.314-9.224 9.03-13.014 14.047-27.652 36.614 2.302 88.497 47.837 82.855z" fill="#f2c13b"/><path d="m398.966 283.305c-45.535-5.641-75.49 46.241-47.837 82.856 3.789 5.017 8.138 9.733 13.014 14.047 3.02-2.277 5.898-4.764 8.598-7.465 13.751-13.75 22.159-31.97 23.704-51.346l.034-.441c.316-4.236 2.017-8.344 4.791-11.564 5.855-6.797 10.488-14.465 13.809-22.654-5.34-1.626-10.733-2.767-16.113-3.433z" fill="#f2c13b"/><path d="m263.726 130.916v-55.803c0-4.267-3.459-7.726-7.726-7.726s-7.726 3.459-7.726 7.726v55.803c0 4.267 3.459 7.726 7.726 7.726s7.726-3.459 7.726-7.726z" fill="#f2af3b"/><path d="m151.537 186.767-48.326-27.901c-3.697-2.134-8.423-.868-10.554 2.828-2.134 3.695-.867 8.421 2.828 10.554l48.326 27.901c3.69 2.13 8.418.874 10.554-2.828 2.134-3.695.867-8.421-2.828-10.554z" fill="#f2af3b"/><path d="m143.811 311.851-48.326 27.901c-3.695 2.133-4.962 6.859-2.828 10.554 2.145 3.713 6.877 4.953 10.554 2.828l48.326-27.901c3.695-2.133 4.962-6.859 2.828-10.554-2.134-3.696-6.86-4.963-10.554-2.828z" fill="#f2af3b"/><path d="m248.274 381.084v55.803c0 4.267 3.459 7.726 7.726 7.726s7.726-3.459 7.726-7.726v-55.803c0-4.267-3.459-7.726-7.726-7.726s-7.726 3.459-7.726 7.726z" fill="#f2af3b"/><path d="m416.516 339.752-48.327-27.901c-3.697-2.135-8.423-.868-10.554 2.828-2.134 3.696-.867 8.421 2.828 10.554l48.327 27.901c3.689 2.129 8.417.875 10.554-2.828 2.134-3.695.867-8.421-2.828-10.554z" fill="#f2af3b"/><path d="m408.79 158.866-48.327 27.901c-3.695 2.133-4.962 6.859-2.828 10.554 2.143 3.713 6.877 4.953 10.554 2.828l48.327-27.901c3.695-2.133 4.962-6.859 2.828-10.554-2.134-3.696-6.861-4.962-10.554-2.828z" fill="#f2af3b"/><path d="m377.854 222.777c-7.11-8.255-11.384-18.572-12.194-29.436l-.001-.02c-1.874-25.129-21.851-45.105-46.98-46.98l-.02-.001c-10.864-.81-21.181-5.084-29.436-12.194-19.095-16.447-47.35-16.447-66.445 0-8.254 7.109-18.572 11.384-29.436 12.194l-.02.001c-25.129 1.874-45.105 21.851-46.98 46.98l-.001.02c-.81 10.864-5.084 21.181-12.194 29.436-16.447 19.095-16.447 47.35 0 66.445 7.11 8.254 11.384 18.572 12.194 29.436l.001.02c1.874 25.129 21.851 45.105 46.98 46.98l.02.002c10.864.81 21.181 5.084 29.436 12.194 19.095 16.447 47.35 16.447 66.445 0 8.254-7.11 18.572-11.384 29.436-12.194l.02-.001c25.129-1.874 45.105-21.851 46.98-46.98l.001-.02c.81-10.864 5.084-21.181 12.194-29.436 16.446-19.096 16.446-47.35 0-66.446z" fill="#fff0ce"/><path d="m215.255 226.488c0-38.693 12.1-74.556 32.709-104.03-9.058 1.443-17.807 5.332-25.187 11.688-8.254 7.109-18.572 11.384-29.436 12.194l-.02.002c-25.129 1.874-45.105 21.851-46.98 46.98l-.001.02c-.81 10.864-5.085 21.181-12.194 29.436-16.447 19.095-16.447 47.35 0 66.445 7.11 8.255 11.384 18.572 12.194 29.436l.002.02c1.874 25.129 21.851 45.105 46.98 46.98l.02.002c10.864.81 21.181 5.084 29.436 12.194 19.095 16.447 47.35 16.447 66.445 0 1.071-.923 2.179-1.795 3.317-2.621-46.74-32.893-77.285-87.25-77.285-148.746z" fill="#fce29f"/><circle cx="256" cy="256" fill="#e9a982" r="94.623"/><path d="m215.255 226.488c0-21.049 3.59-41.257 10.171-60.06-37.255 12.713-64.05 48.012-64.05 89.572 0 52.259 42.364 94.623 94.623 94.623 2.678 0 5.328-.117 7.949-.335-30.206-32.456-48.693-75.965-48.693-123.8z" fill="#df8956"/><path d="m200.318 261.465v-12.185c0-4.267-3.459-7.726-7.726-7.726-4.268 0-7.726 3.459-7.726 7.726v12.185c0 4.267 3.459 7.726 7.726 7.726s7.726-3.459 7.726-7.726z" fill="#4a5561"/><path d="m319.408 241.554c-4.268 0-7.726 3.459-7.726 7.726v12.185c0 4.267 3.459 7.726 7.726 7.726s7.726-3.459 7.726-7.726v-12.185c.001-4.267-3.458-7.726-7.726-7.726z" fill="#4a5561"/><path d="m278.542 266.178c2.804-3.217 2.468-8.098-.748-10.901-3.219-2.803-8.097-2.469-10.901.749-2.749 3.155-6.72 4.965-10.892 4.965s-8.143-1.81-10.892-4.965c-2.804-3.218-7.685-3.552-10.901-.749s-3.552 7.684-.749 10.901c5.685 6.524 13.901 10.266 22.542 10.266 8.64 0 16.856-3.742 22.541-10.266z" fill="#4a5561"/></g></svg>